<svg width="170" height="40" viewBox="0 0 170 40" fill="none" xmlns="http://www.w3.org/2000/svg">
<path d="M164.782 1.35141C164.843 1.36667 164.905 1.38193 164.968 1.39765C165.922 1.64751 167.072 2.24152 167.731 2.90762C167.731 2.9443 167.731 2.98098 167.731 3.01877C167.773 3.01877 167.815 3.01877 167.859 3.01877C168.065 3.21279 168.248 3.42327 168.436 3.63014C168.488 3.68376 168.488 3.68376 168.541 3.73847C169.8 5.07632 170.127 7.005 169.959 8.67022C169.918 8.9755 169.854 9.27613 169.782 9.57706C169.768 9.63773 169.768 9.63773 169.754 9.69962C169.353 11.4221 168.377 13.0881 166.705 14.1345C166.427 14.2938 166.141 14.4402 165.851 14.582C165.762 14.6256 165.674 14.6706 165.587 14.7161C165.029 14.9872 164.374 15.1153 163.756 15.2461C163.703 15.2573 163.65 15.2685 163.596 15.28C163.096 15.3724 162.597 15.3742 162.089 15.3717C161.942 15.3712 161.796 15.3717 161.65 15.3724C161.058 15.3729 160.494 15.3351 159.91 15.2461C159.893 15.3016 159.877 15.3572 159.859 15.4144C159.795 15.6296 159.73 15.8447 159.664 16.0599C159.637 16.1513 159.609 16.2427 159.582 16.3342C159.339 17.1409 159.084 17.9446 158.827 18.7481C158.639 19.3372 158.452 19.9265 158.264 20.5157C158.199 20.7202 158.134 20.9246 158.069 21.1291C157.775 22.0538 157.484 22.979 157.2 23.9062C157.04 24.4248 156.879 24.9427 156.709 25.4587C156.689 25.5186 156.689 25.5186 156.669 25.5798C156.185 27.0418 155.594 28.4581 154.784 29.8091C154.714 29.9246 154.646 30.0405 154.578 30.1564C154.272 30.6714 153.938 31.1619 153.564 31.6418C153.517 31.7024 153.47 31.7629 153.422 31.8253C153.082 32.2584 152.723 32.677 152.346 33.0869C152.306 33.1313 152.265 33.1758 152.224 33.2216C151.849 33.6281 151.445 33.9991 151.02 34.3652C150.986 34.3944 150.952 34.4237 150.917 34.4538C150.417 34.8856 149.909 35.2886 149.333 35.6435C149.26 35.6906 149.187 35.7378 149.114 35.785C148.588 36.1215 148.042 36.4203 147.474 36.6995C147.433 36.72 147.391 36.7406 147.348 36.7618C144.986 37.9201 142.274 38.4794 139.59 38.7003C139.525 38.706 139.461 38.7118 139.395 38.7177C134.388 39.1573 128.356 38.7081 124.269 35.9214C124.099 35.7964 123.934 35.6685 123.771 35.5367C123.64 35.4306 123.505 35.3302 123.367 35.2301C122.744 34.7543 122.285 34.1854 121.833 33.5871C121.795 33.5365 121.756 33.4859 121.716 33.4338C121.445 33.0606 121.254 32.6611 121.064 32.2532C121.036 32.1973 121.008 32.1414 120.98 32.0838C119.845 29.7096 119.961 26.7955 120.58 24.3357C120.617 24.186 120.652 24.036 120.687 23.8858C120.823 23.3072 120.986 22.7404 121.182 22.175C121.419 21.4901 121.635 20.8002 121.853 20.1107C122.079 19.3965 122.312 18.6843 122.552 17.9736C122.727 17.4587 122.896 16.9427 123.066 16.4268C123.123 16.2523 123.181 16.0779 123.239 15.9035C123.432 15.3167 123.623 14.7296 123.811 14.1414C123.882 13.9195 123.954 13.6978 124.026 13.4763C124.06 13.3719 124.06 13.3719 124.095 13.2655C124.106 13.2305 124.118 13.1955 124.129 13.1595C124.318 12.58 124.504 12.0001 124.682 11.4181C124.881 10.7668 125.1 10.1208 125.323 9.47549C125.88 8.1131 125.88 8.1131 125.743 6.74255C125.622 6.5532 125.491 6.37027 125.359 6.18676C124.804 5.38803 124.416 4.68436 124.67 3.73782C124.916 2.96131 125.399 2.22588 126.222 1.81015C127.48 1.26995 128.735 1.21531 130.113 1.2178C130.273 1.21748 130.433 1.21709 130.593 1.21664C130.98 1.21575 131.367 1.21564 131.754 1.21593C132.069 1.21616 132.384 1.21607 132.699 1.21578C132.744 1.21574 132.789 1.21569 132.836 1.21565C132.927 1.21557 133.019 1.21548 133.111 1.21539C133.967 1.21463 134.823 1.21493 135.679 1.21557C136.46 1.21612 137.241 1.2154 138.022 1.21407C138.827 1.21272 139.632 1.21219 140.437 1.21255C140.888 1.21275 141.338 1.21263 141.789 1.21165C142.213 1.21074 142.637 1.21102 143.061 1.21206C143.215 1.21226 143.37 1.21209 143.525 1.21151C144.863 1.20684 146.215 1.27912 147.25 2.11214C147.908 2.72997 148.091 3.42548 148.067 4.24129C148.022 5.06132 147.584 5.79509 146.897 6.3535C145.575 7.29834 145.575 7.29834 145.166 7.29834C145.166 7.33502 145.166 7.3717 145.166 7.40949C145.081 7.46771 144.992 7.52275 144.902 7.57623C143.988 8.17984 143.776 9.37635 143.488 10.2853C143.388 10.5996 143.287 10.9136 143.186 11.2277C143.15 11.3384 143.115 11.4492 143.079 11.56C142.818 12.3736 142.551 13.1857 142.283 13.9977C142.246 14.1084 142.21 14.2192 142.173 14.3299C141.938 15.0447 141.701 15.7591 141.46 16.4725C141.315 16.9029 141.174 17.334 141.044 17.768C140.857 18.3796 140.653 18.9861 140.445 19.5926C140.269 20.1058 140.1 20.6197 139.942 21.1374C139.785 21.6551 139.615 22.1691 139.439 22.6823C138.212 25.7026 138.212 25.7026 138.504 28.7795C138.756 29.1675 139.141 29.3412 139.622 29.4638C139.931 29.527 140.234 29.5703 140.551 29.5854C140.607 29.5883 140.662 29.5913 140.72 29.5943C142.032 29.6299 143.175 29.2734 144.166 28.5244C145.849 27.148 146.492 24.8178 147.053 22.9455C147.15 22.6236 147.256 22.3053 147.372 21.9883C147.531 21.5542 147.672 21.1167 147.811 20.6774C148.003 20.0664 148.199 19.4567 148.416 18.8518C148.596 18.3489 148.757 17.8426 148.913 17.3337C149.029 16.9542 149.149 16.5755 149.273 16.1979C149.286 16.1571 149.3 16.1163 149.314 16.0743C149.404 15.8014 149.498 15.5294 149.592 15.2576C149.81 14.6322 150.02 14.0053 150.227 13.3773C150.243 13.3267 150.26 13.2761 150.277 13.224C150.496 12.5609 150.708 11.8969 150.912 11.2303C151.047 10.7892 151.198 10.3527 151.354 9.91676C151.452 9.64297 151.544 9.369 151.629 9.09186C151.963 7.99335 152.42 6.88735 153.039 5.88455C153.067 5.83938 153.095 5.79421 153.123 5.74767C154.158 4.07668 155.527 2.61424 157.538 1.79604C157.62 1.75884 157.702 1.72165 157.784 1.68445C158.064 1.5632 158.349 1.48027 158.648 1.40352C158.731 1.38211 158.731 1.38211 158.815 1.36027C159.386 1.21851 159.963 1.13415 160.551 1.07352C160.601 1.06828 160.652 1.06304 160.704 1.05764C162.056 0.928011 163.482 0.984584 164.782 1.35141Z" fill="#F07575"/>
<path d="M23.0545 0.000147721C23.1171 0.000249031 23.1797 0.000350341 23.2442 0.00045472C24.2804 0.00326307 25.2944 0.0448562 26.3197 0.184252C26.3884 0.193199 26.457 0.202145 26.5278 0.211363C28.4692 0.472348 30.3149 1.07687 32.0249 1.90719C32.0802 1.9337 32.1355 1.96021 32.1924 1.98752C32.4601 2.12141 32.7148 2.26919 32.9687 2.42173C33.0509 2.47108 33.0509 2.47108 33.1348 2.52144C33.2457 2.58829 33.3563 2.65555 33.4666 2.72323C33.5176 2.75413 33.5686 2.78503 33.6212 2.81686C33.6671 2.84501 33.7131 2.87316 33.7604 2.90216C33.888 2.97695 33.888 2.97695 34.0762 2.96319C34.2018 2.88943 34.2018 2.88943 34.3366 2.78603C35.8047 1.7392 37.3816 0.848072 39.2685 0.517725C39.3159 0.508035 39.3633 0.498345 39.4122 0.488361C39.7677 0.435673 40.1317 0.449594 40.4916 0.448794C40.6361 0.448261 40.7805 0.446538 40.9249 0.444778C41.7445 0.439454 42.5466 0.50686 43.291 0.830355C43.3364 0.849601 43.3819 0.868846 43.4287 0.888675C43.8419 1.07064 44.1908 1.29476 44.525 1.57372C44.5769 1.61656 44.6289 1.65941 44.6825 1.70355C45.4921 2.42295 45.6474 3.263 45.6466 4.2261C45.6327 4.84905 45.4746 5.38246 45.2301 5.96444C45.2057 6.02328 45.1813 6.08212 45.1562 6.14274C45.0225 6.46357 44.8857 6.78327 44.7463 7.10229C44.6094 7.41613 44.479 7.73151 44.3527 8.04864C44.1939 8.44653 44.0285 8.84196 43.8594 9.23664C43.7284 9.5434 43.6027 9.85153 43.4793 10.1606C43.302 10.6041 43.1156 11.0443 42.9264 11.4841C42.72 11.9641 42.5186 12.4451 42.3254 12.9292C42.2937 13.0084 42.2937 13.0084 42.2613 13.0893C42.1744 13.3073 42.088 13.5253 42.0042 13.7442C41.5322 14.9485 40.7897 16.1246 39.4608 16.7467C38.1193 17.2715 36.5576 17.3625 35.1539 16.9586C33.8051 16.5104 32.9009 15.5542 32.1531 14.5236C32.128 14.4891 32.1028 14.4546 32.0769 14.419C31.6984 13.896 31.3742 13.3557 31.0634 12.8006C30.754 12.2506 30.4298 11.708 30.0978 11.168C30.0608 11.1072 30.0237 11.0464 29.9856 10.9838C29.7788 10.6497 29.558 10.3356 29.3018 10.0282C29.191 9.89438 29.0925 9.75502 28.992 9.61527C28.7327 9.29249 28.3996 9.14133 27.9659 9.0432C27.3743 8.96768 26.739 8.96547 26.1915 9.18801C26.1485 9.20413 26.1054 9.22025 26.0611 9.23686C25.2823 9.5478 24.5883 10.109 24.0979 10.7099C24.0554 10.7544 24.0554 10.7544 24.012 10.7998C23.9697 10.7998 23.9274 10.7998 23.8838 10.7998C23.864 10.8548 23.864 10.8548 23.8438 10.9109C23.7668 11.0566 23.6938 11.1531 23.5813 11.2774C23.3644 11.5248 23.1776 11.7835 22.9944 12.0503C22.9611 12.0986 22.9278 12.1469 22.8935 12.1967C22.623 12.5936 22.3787 12.9986 22.1497 13.4145C22.0804 13.5384 22.0081 13.6609 21.936 13.7837C21.437 14.6476 21.0286 15.5552 20.6778 16.4717C20.6183 16.626 20.5573 16.78 20.496 16.9339C20.1545 17.792 19.8395 18.6539 19.5609 19.5291C19.5479 19.57 19.5348 19.6109 19.5214 19.6531C19.4351 19.9251 19.3511 20.1976 19.2684 20.4705C19.2571 20.5076 19.2458 20.5448 19.2342 20.583C19.0766 21.1037 18.9448 21.6256 18.8354 22.1555C18.8117 22.2695 18.7873 22.3835 18.7629 22.4974C18.5711 23.4041 18.4763 24.2961 18.4789 25.2182C18.4792 25.3687 18.4776 25.5191 18.476 25.6695C18.4715 26.7385 18.6066 27.8202 19.5028 28.6247C19.7664 28.8372 20.0154 28.9371 20.3582 29.0296C20.4132 29.045 20.4132 29.045 20.4693 29.0607C21.8012 29.2856 23.4139 28.9467 24.5514 28.3486C24.7222 28.2522 24.7222 28.2522 24.8869 28.1284C25.0377 28.0292 25.0377 28.0292 25.23 28.0292C25.2511 27.9742 25.2723 27.9192 25.2941 27.8625C25.408 27.7732 25.408 27.7732 25.5465 27.6853C25.592 27.6559 25.6376 27.6264 25.6845 27.5961C25.8069 27.529 25.8069 27.529 25.9351 27.529C25.9351 27.4923 25.9351 27.4556 25.9351 27.4178C26.0203 27.3434 26.0203 27.3434 26.1435 27.2546C26.9764 26.6374 27.7245 25.9703 28.4529 25.2613C28.7758 24.9499 29.1122 24.651 29.4528 24.3541C29.5115 24.302 29.5703 24.2499 29.6308 24.1962C30.5502 23.3946 31.5502 22.8588 32.8783 22.843C34.4026 22.8525 35.6644 23.6141 36.7044 24.5277C37.5031 25.2691 37.9197 26.1231 37.9224 27.1399C37.8706 28.0388 37.4992 28.7745 36.9608 29.5298C36.9123 29.6095 36.8642 29.6894 36.8166 29.7695C36.5685 30.1595 36.2439 30.509 35.9352 30.8637C35.8928 30.9128 35.8928 30.9128 35.8496 30.963C35.5339 31.3288 35.2071 31.6806 34.8497 32.017C34.7329 32.1273 34.6206 32.2397 34.5089 32.3539C33.968 32.8902 33.3748 33.3685 32.73 33.8094C32.6124 33.8938 32.4949 33.9783 32.3775 34.063C32.0912 34.266 31.7978 34.4575 31.497 34.6442C31.3755 34.7196 31.2547 34.7959 31.1345 34.873C31.074 34.9117 31.0135 34.9505 30.9512 34.9904C30.8704 35.0425 30.8704 35.0425 30.7879 35.0955C30.6275 35.1912 30.4633 35.275 30.2935 35.3574C30.1478 35.4302 30.0058 35.5073 29.8637 35.5853C27.0963 37.1025 23.9424 37.9748 20.6667 38.1063C20.6113 38.1086 20.5559 38.111 20.4989 38.1134C18.6319 38.1881 16.7472 38.1162 14.9094 37.8111C14.8349 37.7987 14.7603 37.7864 14.6835 37.7737C13.7162 37.6101 12.7681 37.4129 11.8325 37.1441C11.7786 37.1289 11.7248 37.1136 11.6693 37.0979C10.9949 36.9054 10.3444 36.6918 9.70835 36.4175C9.58068 36.3625 9.45247 36.3084 9.32421 36.2544C8.84293 36.0504 8.37486 35.8371 7.9222 35.5879C7.85246 35.5502 7.78272 35.5125 7.71087 35.4737C6.7926 34.9737 5.90252 34.4139 5.1465 33.7371C5.03326 33.6351 5.03326 33.6351 4.87331 33.5315C4.69145 33.4021 4.54817 33.2585 4.39604 33.1034C4.30916 33.0165 4.21989 32.9314 4.12861 32.8481C3.24575 32.0399 2.56283 31.1204 1.96063 30.1412C1.92271 30.0796 1.92271 30.0796 1.88401 30.0167C-0.106248 26.7488 -0.34228 22.8398 0.358062 19.2478C0.368877 19.1912 0.379691 19.1345 0.390834 19.0762C0.881908 16.5394 1.78221 14.0107 3.05614 11.685C3.12502 11.5586 3.19283 11.4318 3.26072 11.305C3.58926 10.6948 3.93437 10.0998 4.33244 9.52148C4.36275 9.47738 4.39305 9.43329 4.42428 9.38785C4.81568 8.82189 5.225 8.26801 5.65857 7.72559C5.69705 7.67711 5.73553 7.62862 5.77518 7.57867C5.81099 7.53452 5.84679 7.49036 5.88368 7.44488C5.9153 7.40574 5.94693 7.3666 5.97951 7.32627C6.00713 7.29871 6.03476 7.27115 6.06322 7.24275C6.10553 7.24275 6.14784 7.24275 6.19143 7.24275C6.20704 7.20242 6.22266 7.16208 6.23875 7.12052C6.32958 6.94572 6.43701 6.83691 6.58806 6.69739C6.63987 6.64888 6.69168 6.60038 6.74507 6.55041C6.82005 6.48045 6.82005 6.48045 6.89656 6.40907C6.97174 6.33527 7.04656 6.26119 7.12092 6.18676C7.76251 5.54936 8.41404 4.91202 9.20426 4.40824C9.24657 4.40824 9.28888 4.40824 9.33247 4.40824C9.35362 4.35321 9.37478 4.29819 9.39657 4.2415C9.52778 4.14554 9.52778 4.14554 9.70106 4.04003C9.7651 4.00084 9.82914 3.96165 9.89512 3.92127C9.96329 3.88022 10.0315 3.83917 10.1017 3.79687C10.201 3.73615 10.201 3.73615 10.3023 3.67421C11.5774 2.89965 12.9119 2.22574 14.3165 1.64319C14.3633 1.62361 14.4102 1.60402 14.4585 1.58384C17.1369 0.487836 20.1062 -0.00985501 23.0545 0.000147721Z" fill="#F07575"/>
<path d="M77.602 3.07429C77.6654 3.11097 77.7289 3.14765 77.7943 3.18544C77.7943 3.22212 77.7943 3.25881 77.7943 3.2966C77.8577 3.31494 77.9212 3.33328 77.9866 3.35218C78.1135 3.51725 78.2404 3.68232 78.3712 3.85239C78.3923 3.43054 78.4135 3.0087 78.4353 2.57408C78.5969 2.50403 78.7081 2.51144 78.8889 2.51131C78.9567 2.51113 79.0245 2.51096 79.0944 2.51078C79.1678 2.51089 79.2413 2.511 79.317 2.51112C79.392 2.51106 79.4671 2.51101 79.5445 2.51095C79.7034 2.51092 79.8623 2.51102 80.0212 2.51125C80.2654 2.51155 80.5097 2.51125 80.7539 2.5109C80.9079 2.51094 81.062 2.51101 81.216 2.51112C81.2896 2.511 81.3632 2.51089 81.439 2.51078C81.5404 2.51104 81.5404 2.51104 81.6438 2.51131C81.7037 2.51135 81.7635 2.51139 81.8251 2.51144C81.961 2.5185 81.961 2.5185 82.0251 2.57408C82.2245 2.57434 82.4225 2.57094 82.6218 2.56539C82.7549 2.56234 82.888 2.55933 83.0211 2.55637C83.093 2.55471 83.1648 2.55305 83.2388 2.55133C84.8517 2.51509 86.4617 2.52118 88.0748 2.54281C88.1285 2.54353 88.1823 2.54425 88.2377 2.54498C88.9019 2.55387 89.5661 2.56355 90.2302 2.57408C90.3361 2.91345 90.4024 3.24873 90.4551 3.59707C90.4634 3.65072 90.4718 3.70437 90.4804 3.75965C90.5068 3.92948 90.5328 4.09935 90.5588 4.26923C90.5767 4.38502 90.5946 4.50081 90.6126 4.6166C90.6564 4.89909 90.6998 5.18162 90.7431 5.46417C90.9211 4.50174 91.0882 3.53789 91.2559 2.57408C93.6518 2.53601 96.0483 2.50426 98.4446 2.52329C98.6426 2.52485 98.8406 2.52579 99.0386 2.52618C101.517 2.5322 101.517 2.5322 102.343 3.17698C103.07 3.8397 103.192 4.6833 103.198 5.56211C103.199 5.64424 103.2 5.72636 103.202 5.80847C103.22 6.57801 103.098 7.22773 102.538 7.85406C102.586 7.89876 102.633 7.94347 102.682 7.98953C102.823 8.13433 102.912 8.27609 102.998 8.45001C103.02 8.49465 103.042 8.53929 103.065 8.58528C103.09 8.636 103.09 8.636 103.115 8.68774C103.246 7.824 103.356 6.95992 103.448 6.09236C103.468 5.90068 103.489 5.70903 103.509 5.51739C103.565 5.00191 103.621 4.48642 103.671 3.97056C103.688 3.80779 103.704 3.64506 103.721 3.48233C103.732 3.37589 103.741 3.26937 103.751 3.16285C103.757 3.10081 103.764 3.03877 103.77 2.97485C103.775 2.92229 103.78 2.86973 103.786 2.81558C103.828 2.6554 103.858 2.61349 104.012 2.5185C104.18 2.50291 104.332 2.49742 104.499 2.49957C104.548 2.49954 104.598 2.49952 104.649 2.4995C104.812 2.49961 104.976 2.50091 105.139 2.50221C105.252 2.50253 105.365 2.50276 105.479 2.50293C105.777 2.50357 106.075 2.5052 106.373 2.50705C106.677 2.50875 106.982 2.50952 107.286 2.51036C107.883 2.51214 108.48 2.51499 109.076 2.5185C109.158 2.71841 109.222 2.90213 109.244 3.11349C109.249 3.16293 109.254 3.21237 109.26 3.26331C109.268 3.34352 109.268 3.34352 109.276 3.42534C109.282 3.48327 109.288 3.54119 109.295 3.60087C109.315 3.78773 109.334 3.97463 109.353 4.16154C109.365 4.27701 109.377 4.39247 109.389 4.50793C109.435 4.93783 109.48 5.36774 109.525 5.79764C109.684 7.25575 109.684 7.25575 109.846 8.74332C109.867 6.70747 109.888 4.67162 109.91 2.57408C110.722 2.57064 111.533 2.5672 112.37 2.56366C112.625 2.56214 112.88 2.56062 113.143 2.55906C113.458 2.5583 113.458 2.5583 113.605 2.55816C113.707 2.55791 113.809 2.55733 113.911 2.55647C114.656 2.55056 115.434 2.56566 116.064 2.96313C116.094 3.01826 116.094 3.01826 116.126 3.0745C116.209 3.21436 116.288 3.22879 116.448 3.2966C116.998 3.85226 117.132 4.70111 117.153 5.40859C117.155 5.45169 117.156 5.49478 117.157 5.53918C117.18 6.39509 117.168 7.18603 116.705 7.96521C116.662 8.0019 116.62 8.03858 116.577 8.07637C116.592 8.30403 116.71 8.47934 116.837 8.67341C116.992 8.99636 116.97 9.3575 116.968 9.70149C116.968 9.75142 116.968 9.80135 116.968 9.85279C116.968 10.0167 116.968 10.1806 116.967 10.3445C116.967 10.4585 116.967 10.5726 116.967 10.6867C116.967 10.9861 116.966 11.2855 116.966 11.585C116.965 11.8908 116.965 12.1967 116.964 12.5026C116.964 13.1021 116.962 13.7017 116.961 14.3012C115.65 14.3025 114.339 14.3035 113.028 14.3041C112.419 14.3044 111.81 14.3047 111.202 14.3054C110.671 14.3059 110.141 14.3063 109.611 14.3064C109.33 14.3065 109.049 14.3067 108.768 14.3071C108.503 14.3074 108.239 14.3076 107.975 14.3075C107.878 14.3075 107.781 14.3076 107.683 14.3078C107.551 14.3081 107.419 14.308 107.287 14.3079C107.213 14.3079 107.138 14.308 107.062 14.308C106.897 14.3012 106.897 14.3012 106.833 14.2456C106.818 14.1508 106.808 14.0555 106.799 13.9601C106.79 13.8724 106.79 13.8724 106.782 13.7829C106.773 13.6904 106.773 13.6904 106.765 13.596C106.759 13.5355 106.753 13.4749 106.747 13.4125C106.721 13.1333 106.702 12.8585 106.705 12.5783C106.578 12.5783 106.451 12.5783 106.32 12.5783C106.318 12.6299 106.318 12.6299 106.315 12.6826C106.308 12.8412 106.3 12.9998 106.292 13.1584C106.288 13.2395 106.288 13.2395 106.284 13.3224C106.28 13.4027 106.28 13.4027 106.276 13.4847C106.274 13.5333 106.272 13.5819 106.269 13.632C106.252 13.8556 106.22 14.0784 106.192 14.3012C105.007 14.3012 103.823 14.3012 102.602 14.3012C102.499 14.1226 102.549 13.9327 102.566 13.7385C102.569 13.6965 102.573 13.6546 102.576 13.6115C102.584 13.5079 102.593 13.4043 102.602 13.3008C102.577 13.329 102.552 13.3572 102.526 13.3863C102.006 13.9416 101.34 14.2138 100.528 14.2894C100.219 14.3109 99.9097 14.3089 99.5996 14.3084C99.5259 14.3085 99.4521 14.3086 99.3761 14.3087C99.134 14.3089 98.8919 14.3088 98.6497 14.3086C98.4811 14.3086 98.3125 14.3087 98.1439 14.3087C97.7915 14.3088 97.4391 14.3087 97.0867 14.3084C96.679 14.3081 96.2713 14.3082 95.8636 14.3085C95.4709 14.3088 95.0782 14.3088 94.6855 14.3086C94.5185 14.3086 94.3514 14.3086 94.1843 14.3088C93.9518 14.3089 93.7193 14.3087 93.4868 14.3084C93.4172 14.3085 93.3476 14.3086 93.2759 14.3087C93.1816 14.3085 93.1816 14.3085 93.0853 14.3082C93.0304 14.3082 92.9754 14.3082 92.9188 14.3082C92.7943 14.3012 92.7943 14.3012 92.7302 14.2456C92.7202 14.163 92.7142 14.08 92.71 13.997C92.7073 13.9471 92.7046 13.8971 92.7018 13.8456C92.6993 13.793 92.6968 13.7405 92.6942 13.6864C92.6914 13.6336 92.6887 13.5808 92.6858 13.5265C92.679 13.3957 92.6724 13.2649 92.6661 13.134C92.6464 13.2395 92.6464 13.2395 92.6263 13.347C92.6089 13.4393 92.5914 13.5316 92.574 13.6238C92.561 13.6933 92.561 13.6933 92.5478 13.7642C92.5394 13.8088 92.5309 13.8534 92.5222 13.8993C92.5144 13.9404 92.5067 13.9814 92.4988 14.0237C92.4738 14.1345 92.4738 14.1345 92.4097 14.3012C91.9544 14.3026 91.4992 14.3036 91.0439 14.3042C90.8888 14.3045 90.7338 14.3049 90.5788 14.3054C90.3565 14.3061 90.1343 14.3064 89.912 14.3066C89.8422 14.3069 89.7724 14.3072 89.7005 14.3075C89.6043 14.3075 89.6043 14.3075 89.5061 14.3075C89.4209 14.3077 89.4209 14.3077 89.334 14.3079C89.2046 14.3012 89.2046 14.3012 89.1405 14.2456C89.1122 14.1227 89.0874 13.9992 89.0641 13.8754C89.0513 13.8079 89.0384 13.7403 89.0252 13.6707C89.009 13.5842 88.9929 13.4976 88.9762 13.4085C88.8989 12.9975 88.8989 12.9975 88.82 12.5783C88.7988 13.1468 88.7777 13.7154 88.7559 14.3012C88.2823 14.3025 87.8088 14.3036 87.3352 14.3042C87.174 14.3045 87.0127 14.3049 86.8515 14.3054C86.6203 14.3061 86.3891 14.3064 86.1579 14.3066C86.0491 14.307 86.0491 14.307 85.938 14.3075C85.8379 14.3075 85.8379 14.3075 85.7358 14.3075C85.6472 14.3077 85.6472 14.3077 85.5568 14.3079C85.4225 14.3012 85.4225 14.3012 85.3584 14.2456C85.3483 14.1305 85.3423 14.0151 85.3381 13.8998C85.3341 13.7947 85.3341 13.7947 85.33 13.6875C85.3274 13.613 85.3249 13.5385 85.3224 13.464C85.3196 13.3893 85.3168 13.3146 85.314 13.2399C85.3071 13.0564 85.3006 12.8729 85.2943 12.6894C85.2702 12.7331 85.2702 12.7331 85.2455 12.7776C84.8507 13.4793 84.2841 13.9644 83.4353 14.2456C82.3738 14.5065 81.2352 14.5042 80.2164 14.1104C79.4809 13.7517 79.0688 13.2749 78.6917 12.6338C78.5642 12.7945 78.5642 12.7945 78.4709 12.9471C78.0225 13.6531 77.5195 14.06 76.6199 14.3031C75.5374 14.533 74.2822 14.4842 73.2913 14.012C72.4711 13.548 72.0053 12.9117 71.7947 12.0875C71.7085 11.6893 71.6952 11.2867 71.6982 10.8827C71.6983 10.8353 71.6984 10.788 71.6985 10.7393C71.6989 10.5904 71.6997 10.4415 71.7005 10.2926C71.7008 10.1907 71.7011 10.0888 71.7014 9.98689C71.702 9.7391 71.7033 9.49132 71.7045 9.24353C72.4237 9.22518 73.143 9.20684 73.884 9.18795C73.7253 9.05383 73.5667 8.91971 73.4032 8.78153C73.0038 8.43857 72.648 8.09993 72.3455 7.68732C72.308 7.63767 72.308 7.63767 72.2696 7.58702C71.6505 6.71387 71.5593 5.66983 71.7839 4.67565C72.0129 3.94231 72.4815 3.24405 73.2349 2.83113C74.5525 2.19768 76.3962 2.32064 77.602 3.07429ZM90.7431 5.68649C90.8072 5.79764 90.8072 5.79764 90.8072 5.79764L90.7431 5.68649ZM76.4481 6.6869C76.738 6.98501 76.738 6.98501 77.0463 7.26071C77.0827 7.29119 77.119 7.32166 77.1564 7.35306C77.1937 7.38427 77.231 7.41548 77.2694 7.44764C77.621 7.74596 77.9226 8.05433 78.2062 8.40246C78.2561 8.46114 78.2561 8.46114 78.3071 8.521C78.3282 8.521 78.3494 8.521 78.3712 8.521C78.3712 7.91575 78.3712 7.3105 78.3712 6.6869C77.7366 6.6869 77.102 6.6869 76.4481 6.6869Z" fill="#F1EDD8"/>
<path d="M111.977 20.6859C113.322 21.6684 114.139 23.0071 114.318 24.5262C114.418 25.6535 114.343 26.7551 114.077 27.8625C114.061 27.9291 114.061 27.9291 114.045 27.9971C113.828 28.9244 113.47 29.7948 112.987 30.6414C112.952 30.7065 112.917 30.7717 112.881 30.8388C112.286 31.9278 111.338 32.9357 110.23 33.6635C110.183 33.6947 110.136 33.7259 110.087 33.758C107.926 35.1566 105.192 35.7379 102.522 35.4051C102.115 35.3381 101.718 35.2453 101.32 35.1433C101.31 35.1811 101.3 35.2189 101.289 35.2579C101.216 35.5233 101.139 35.7858 101.039 36.0447C101.024 36.0842 101.009 36.1237 100.993 36.1643C100.963 36.2423 100.932 36.32 100.9 36.3975C100.818 36.6081 100.818 36.6081 100.849 36.8237C100.945 36.9325 101.046 37.0314 101.156 37.1302C101.543 37.5109 101.613 37.8476 101.6 38.3523C101.554 38.7116 101.401 39.0371 101.128 39.3117C101.085 39.3117 101.043 39.3117 101 39.3117C100.978 39.3667 100.957 39.4217 100.935 39.4784C100.175 39.9231 99.3733 39.9868 98.4814 39.9876C98.3649 39.988 98.3649 39.988 98.2462 39.9884C98.0345 39.9891 97.8228 39.9895 97.6112 39.9898C97.4785 39.9899 97.3459 39.9902 97.2132 39.9904C96.797 39.9912 96.3808 39.9917 95.9646 39.9919C95.4864 39.9922 95.0082 39.9931 94.5299 39.9948C94.1587 39.996 93.7875 39.9965 93.4163 39.9966C93.1953 39.9966 92.9743 39.997 92.7533 39.998C92.5064 39.9989 92.2594 39.9988 92.0125 39.9985C91.9045 39.9992 91.9045 39.9992 91.7944 40C91.006 39.9964 90.3097 39.8702 89.7315 39.382C89.3392 39.0052 89.2313 38.6794 89.2472 38.1741C89.3088 37.6127 89.6338 37.2433 90.1021 36.8662C90.3639 36.6858 90.6164 36.5138 90.9354 36.4216C90.9442 36.3811 90.953 36.3405 90.9621 36.2988C90.9961 36.158 91.0376 36.0233 91.0859 35.8858C91.1033 35.8361 91.1207 35.7865 91.1387 35.7354C91.1575 35.6821 91.1764 35.6289 91.1959 35.574C91.2155 35.5181 91.2352 35.4622 91.2555 35.4047C91.4251 34.9258 91.6015 34.449 91.7786 33.9722C91.9415 33.5326 92.0945 33.0911 92.2424 32.6475C92.3141 32.4346 92.3881 32.2224 92.4619 32.01C92.5704 31.6976 92.6781 31.385 92.7844 31.0719C93.0003 30.436 93.2197 29.8013 93.4475 29.1686C93.7251 28.395 93.999 27.6205 94.2713 26.8456C94.3455 26.6346 94.4198 26.4236 94.494 26.2126C94.7631 25.4478 95.0305 24.6826 95.2944 23.9164C95.2545 23.9001 95.2146 23.8838 95.1735 23.867C94.8202 23.706 94.48 23.3116 94.3612 22.9839C94.2457 22.4799 94.3184 21.9902 94.6294 21.5543C95.2819 20.7582 96.3626 20.4402 97.4098 20.1926C97.5301 20.1627 97.5301 20.1627 97.6527 20.1323C99.4819 19.7027 101.565 19.5135 103.29 20.3031C103.572 20.4536 103.819 20.6247 104.07 20.814C104.196 20.9171 104.196 20.9171 104.333 20.9707C104.405 20.9243 104.405 20.9243 104.479 20.8769C106.684 19.5036 109.728 19.1768 111.977 20.6859Z" fill="#F07575"/>
<path d="M164.782 1.35141C164.843 1.36667 164.905 1.38193 164.968 1.39765C165.922 1.64751 167.072 2.24152 167.731 2.90762C167.731 2.9443 167.731 2.98098 167.731 3.01877C167.773 3.01877 167.815 3.01877 167.859 3.01877C168.065 3.21279 168.248 3.42327 168.436 3.63014C168.488 3.68376 168.488 3.68376 168.541 3.73847C169.8 5.07632 170.127 7.005 169.959 8.67022C169.918 8.9755 169.854 9.27613 169.782 9.57706C169.768 9.63773 169.768 9.63773 169.754 9.69962C169.353 11.4221 168.377 13.0881 166.705 14.1345C166.427 14.2938 166.141 14.4402 165.851 14.582C165.762 14.6256 165.674 14.6706 165.587 14.7161C165.029 14.9872 164.374 15.1153 163.756 15.2461C163.703 15.2573 163.65 15.2685 163.596 15.28C163.096 15.3724 162.597 15.3742 162.089 15.3717C161.942 15.3712 161.796 15.3717 161.65 15.3724C161.058 15.3729 160.494 15.3351 159.91 15.2461C159.893 15.3016 159.877 15.3572 159.859 15.4144C159.795 15.6296 159.73 15.8447 159.664 16.0599C159.637 16.1513 159.609 16.2427 159.582 16.3342C159.339 17.1409 159.084 17.9446 158.827 18.7481C158.639 19.3372 158.452 19.9265 158.264 20.5157C158.199 20.7202 158.134 20.9246 158.069 21.1291C157.775 22.0538 157.484 22.979 157.2 23.9062C157.04 24.4248 156.879 24.9427 156.709 25.4587C156.689 25.5186 156.689 25.5186 156.669 25.5798C156.185 27.0418 155.594 28.4581 154.784 29.8091C154.714 29.9246 154.646 30.0405 154.578 30.1564C154.272 30.6714 153.938 31.1619 153.564 31.6418C153.517 31.7024 153.47 31.7629 153.422 31.8253C153.082 32.2584 152.723 32.677 152.346 33.0869C152.306 33.1313 152.265 33.1758 152.224 33.2216C151.849 33.6281 151.445 33.9991 151.02 34.3652C150.986 34.3944 150.952 34.4237 150.917 34.4538C150.417 34.8856 149.909 35.2886 149.333 35.6435C149.26 35.6906 149.187 35.7378 149.114 35.785C148.588 36.1215 148.042 36.4203 147.474 36.6995C147.433 36.72 147.391 36.7406 147.348 36.7618C144.986 37.9201 142.274 38.4794 139.59 38.7003C139.525 38.706 139.461 38.7118 139.395 38.7177C134.388 39.1573 128.356 38.7081 124.269 35.9214C124.099 35.7964 123.934 35.6685 123.771 35.5367C123.64 35.4306 123.505 35.3302 123.367 35.2301C122.744 34.7543 122.285 34.1854 121.833 33.5871C121.795 33.5365 121.756 33.4859 121.716 33.4338C121.445 33.0606 121.254 32.6611 121.064 32.2532C121.036 32.1973 121.008 32.1414 120.98 32.0838C119.845 29.7096 119.961 26.7955 120.58 24.3357C120.617 24.186 120.652 24.036 120.687 23.8858C120.823 23.3072 120.986 22.7404 121.182 22.175C121.419 21.4901 121.635 20.8002 121.853 20.1107C122.079 19.3965 122.312 18.6843 122.552 17.9736C122.727 17.4587 122.896 16.9427 123.066 16.4268C123.123 16.2523 123.181 16.0779 123.239 15.9035C123.432 15.3167 123.623 14.7296 123.811 14.1414C123.882 13.9195 123.954 13.6978 124.026 13.4763C124.06 13.3719 124.06 13.3719 124.095 13.2655C124.106 13.2305 124.118 13.1955 124.129 13.1595C124.318 12.58 124.504 12.0001 124.682 11.4181C124.881 10.7668 125.1 10.1208 125.323 9.47549C125.88 8.1131 125.88 8.1131 125.743 6.74255C125.622 6.5532 125.491 6.37027 125.359 6.18676C124.804 5.38803 124.416 4.68436 124.67 3.73782C124.916 2.96131 125.399 2.22588 126.222 1.81015C127.48 1.26995 128.735 1.21531 130.113 1.2178C130.273 1.21748 130.433 1.21709 130.593 1.21664C130.98 1.21575 131.367 1.21564 131.754 1.21593C132.069 1.21616 132.384 1.21607 132.699 1.21578C132.744 1.21574 132.789 1.21569 132.836 1.21565C132.927 1.21557 133.019 1.21548 133.111 1.21539C133.967 1.21463 134.823 1.21493 135.679 1.21557C136.46 1.21612 137.241 1.2154 138.022 1.21407C138.827 1.21272 139.632 1.21219 140.437 1.21255C140.888 1.21275 141.338 1.21263 141.789 1.21165C142.213 1.21074 142.637 1.21102 143.061 1.21206C143.215 1.21226 143.37 1.21209 143.525 1.21151C144.863 1.20684 146.215 1.27912 147.25 2.11214C147.908 2.72997 148.091 3.42548 148.067 4.24129C148.022 5.06132 147.584 5.79509 146.897 6.3535C145.575 7.29834 145.575 7.29834 145.166 7.29834C145.166 7.33502 145.166 7.3717 145.166 7.40949C145.081 7.46771 144.992 7.52275 144.902 7.57623C143.988 8.17984 143.776 9.37635 143.488 10.2853C143.388 10.5996 143.287 10.9136 143.186 11.2277C143.15 11.3384 143.115 11.4492 143.079 11.56C142.818 12.3736 142.551 13.1857 142.283 13.9977C142.246 14.1084 142.21 14.2192 142.173 14.3299C141.938 15.0447 141.701 15.7591 141.46 16.4725C141.315 16.9029 141.174 17.334 141.044 17.768C140.857 18.3796 140.653 18.9861 140.445 19.5926C140.269 20.1058 140.1 20.6197 139.942 21.1374C139.785 21.6551 139.615 22.1691 139.439 22.6823C138.212 25.7026 138.212 25.7026 138.504 28.7795C138.756 29.1675 139.141 29.3412 139.622 29.4638C139.931 29.527 140.234 29.5703 140.551 29.5854C140.607 29.5883 140.662 29.5913 140.72 29.5943C142.032 29.6299 143.175 29.2734 144.166 28.5244C145.849 27.148 146.492 24.8178 147.053 22.9455C147.15 22.6236 147.256 22.3053 147.372 21.9883C147.531 21.5542 147.672 21.1167 147.811 20.6774C148.003 20.0664 148.199 19.4567 148.416 18.8518C148.596 18.3489 148.757 17.8426 148.913 17.3337C149.029 16.9542 149.149 16.5755 149.273 16.1979C149.286 16.1571 149.3 16.1163 149.314 16.0743C149.404 15.8014 149.498 15.5294 149.592 15.2576C149.81 14.6322 150.02 14.0053 150.227 13.3773C150.243 13.3267 150.26 13.2761 150.277 13.224C150.496 12.5609 150.708 11.8969 150.912 11.2303C151.047 10.7892 151.198 10.3527 151.354 9.91676C151.452 9.64297 151.544 9.369 151.629 9.09186C151.963 7.99335 152.42 6.88735 153.039 5.88455C153.067 5.83938 153.095 5.79421 153.123 5.74767C154.158 4.07668 155.527 2.61424 157.538 1.79604C157.62 1.75884 157.702 1.72165 157.784 1.68445C158.064 1.5632 158.349 1.48027 158.648 1.40352C158.731 1.38211 158.731 1.38211 158.815 1.36027C159.386 1.21851 159.963 1.13415 160.551 1.07352C160.601 1.06828 160.652 1.06304 160.704 1.05764C162.056 0.928011 163.482 0.984584 164.782 1.35141ZM159.333 2.6853C159.276 2.69719 159.22 2.70909 159.161 2.72134C157.296 3.14135 155.89 4.38688 154.922 5.77339C153.819 7.40749 153.218 9.21159 152.644 11.0258C152.538 11.3581 152.426 11.6886 152.314 12.0191C152.156 12.4828 152.008 12.9482 151.865 13.4155C151.729 13.8595 151.586 14.3003 151.429 14.7389C151.231 15.2894 151.052 15.8436 150.876 16.3994C150.665 17.0631 150.448 17.7245 150.22 18.384C150.019 18.968 149.83 19.5549 149.642 20.1422C149.561 20.392 149.479 20.6414 149.397 20.8908C149.374 20.9614 149.374 20.9614 149.35 21.0335C149.267 21.2857 149.183 21.5376 149.097 21.7892C149.06 21.8996 149.022 22.0101 148.985 22.1205C148.966 22.1764 148.947 22.2322 148.927 22.2898C148.813 22.629 148.706 22.9692 148.604 23.3113C148.202 24.6541 147.73 26.0165 147.018 27.2625C146.969 27.3492 146.922 27.4368 146.875 27.5247C146.12 28.9184 144.892 30.0516 143.236 30.6336C142.457 30.8765 141.677 30.9518 140.856 30.9471C140.786 30.9469 140.786 30.9469 140.715 30.9468C139.561 30.9413 138.492 30.7733 137.61 30.0682C136.868 29.3608 136.693 28.4615 136.693 27.5372C136.693 27.4234 136.692 27.3096 136.69 27.1958C136.688 26.6578 136.697 26.1015 136.896 25.5871C136.97 25.3952 137.008 25.2078 137.046 25.0084C137.135 24.5741 137.267 24.1572 137.416 23.7359C137.489 23.5296 137.56 23.3228 137.631 23.1161C137.646 23.075 137.66 23.0338 137.674 22.9914C137.797 22.6346 137.91 22.2757 138.019 21.9155C138.201 21.3157 138.402 20.7211 138.606 20.1265C138.809 19.5328 139.001 18.9373 139.184 18.3385C139.3 17.9575 139.431 17.583 139.57 17.2076C139.704 16.8337 139.816 16.4538 139.932 16.0753C140.162 15.3261 140.408 14.5812 140.667 13.8393C141.032 12.7952 141.365 11.7427 141.689 10.6886C141.829 10.2313 141.979 9.77859 142.147 9.32826C142.218 9.13214 142.28 8.93496 142.342 8.73643C142.754 7.48021 143.454 6.69836 144.698 5.99701C145.829 5.38522 145.829 5.38522 146.449 4.40824C146.483 3.95751 146.484 3.5585 146.18 3.17509C145.682 2.74361 145.018 2.61274 144.33 2.60716C144.269 2.6075 144.208 2.60783 144.145 2.60817C144.078 2.60788 144.011 2.60758 143.942 2.60727C143.72 2.60648 143.498 2.60687 143.276 2.60726C143.116 2.60695 142.956 2.60656 142.795 2.60611C142.407 2.60522 142.018 2.60511 141.629 2.6054C141.313 2.60562 140.997 2.60554 140.681 2.60525C140.635 2.6052 140.59 2.60516 140.544 2.60512C140.452 2.60503 140.36 2.60495 140.269 2.60486C139.409 2.6041 138.55 2.6044 137.691 2.60504C136.907 2.60559 136.123 2.60487 135.339 2.60354C134.532 2.60218 133.725 2.60165 132.918 2.60202C132.466 2.60222 132.014 2.6021 131.562 2.60112C131.136 2.60021 130.71 2.60048 130.285 2.60153C130.129 2.60173 129.974 2.60156 129.818 2.60098C128.651 2.59693 127.488 2.60235 126.585 3.33488C126.326 3.68497 126.115 4.0989 126.192 4.5194C126.347 4.93052 126.574 5.28339 126.848 5.6427C127.43 6.43674 127.613 7.18184 127.393 8.10661C127.286 8.52006 127.156 8.92689 127.021 9.33391C126.983 9.45009 126.945 9.56631 126.907 9.68253C126.88 9.76345 126.854 9.84436 126.827 9.92527C126.688 10.3494 126.553 10.7744 126.417 11.1994C126.211 11.8466 126.001 12.4928 125.783 13.1371C125.627 13.5961 125.476 14.0561 125.327 14.5166C125.314 14.5545 125.302 14.5924 125.289 14.6314C125.105 15.2002 124.927 15.7702 124.751 16.3411C124.613 16.7885 124.465 17.2331 124.314 17.6774C124.14 18.1885 123.977 18.702 123.815 19.2158C123.689 19.6115 123.562 20.0066 123.432 20.401C123.216 21.0532 123.004 21.7064 122.795 22.3602C122.777 22.4148 122.759 22.4694 122.741 22.5256C122.331 23.7881 122.331 23.7881 122.057 25.0766C122.031 25.2164 121.999 25.3501 121.962 25.4876C121.342 27.8634 121.734 30.7561 123.19 32.8619C123.346 33.0739 123.516 33.2756 123.692 33.4759C123.754 33.5479 123.754 33.5479 123.817 33.6214C124.016 33.8492 124.219 34.059 124.461 34.254C124.502 34.2885 124.543 34.3229 124.585 34.3584C125.77 35.3269 127.225 35.9927 128.76 36.4402C128.924 36.4888 129.084 36.544 129.245 36.5987C129.665 36.7304 130.1 36.8114 130.535 36.894C130.672 36.9205 130.809 36.9487 130.946 36.9774C131.613 37.1131 132.287 37.194 132.967 37.2657C133.033 37.2728 133.033 37.2728 133.101 37.28C134.186 37.3944 135.263 37.4336 136.356 37.4324C136.416 37.4324 136.476 37.4324 136.538 37.4323C139.119 37.4284 141.689 37.216 144.141 36.4772C144.553 36.3625 144.553 36.3625 144.738 36.312C144.917 36.2525 145.067 36.175 145.231 36.0881C145.321 36.0562 145.411 36.0261 145.503 35.9978C147.187 35.4247 148.622 34.443 149.91 33.3648C149.97 33.3148 150.031 33.2647 150.093 33.2132C150.415 32.9407 150.707 32.6553 150.988 32.3498C151.076 32.2543 151.166 32.1601 151.258 32.068C152.243 31.0803 153.006 29.893 153.627 28.7091C153.674 28.6198 153.721 28.5307 153.769 28.4417C154.423 27.2109 154.906 25.942 155.304 24.6341C155.423 24.2451 155.551 23.8584 155.679 23.4717C155.858 22.934 156.031 22.3953 156.197 21.8547C156.367 21.3028 156.541 20.7517 156.714 20.2006C156.972 19.3829 157.228 18.5649 157.478 17.7454C157.657 17.1614 157.844 16.5795 158.032 15.9975C158.285 15.2123 158.525 14.4246 158.756 13.6343C159.033 13.6655 159.297 13.7064 159.566 13.7698C160.306 13.9327 161.023 13.9872 161.783 13.9853C161.929 13.9852 162.075 13.9865 162.221 13.9879C162.801 13.99 163.324 13.9413 163.885 13.801C163.951 13.7849 164.018 13.7688 164.086 13.7522C165.356 13.4333 166.508 12.647 167.218 11.6891C167.314 11.5357 167.399 11.3789 167.482 11.2201C167.504 11.1805 167.525 11.1409 167.547 11.1002C167.776 10.6718 167.95 10.2423 168.087 9.78548C168.101 9.74271 168.114 9.69994 168.128 9.65587C168.317 9.03031 168.393 8.43135 168.388 7.78465C168.388 7.71716 168.389 7.64967 168.389 7.58014C168.388 7.224 168.363 6.91647 168.244 6.57581C168.231 6.52365 168.218 6.4715 168.205 6.41776C167.946 5.39498 167.346 4.59985 166.513 3.85245C166.462 3.80603 166.41 3.7596 166.358 3.71177C165.667 3.12432 164.815 2.78258 163.885 2.57414C163.807 2.55236 163.729 2.53058 163.648 2.50814C163.087 2.38877 162.508 2.39879 161.933 2.40046C161.823 2.40014 161.823 2.40014 161.71 2.39981C160.874 2.40063 160.137 2.49638 159.333 2.6853Z" fill="#F9F8F8"/>
<path d="M23.0545 0.000147721C23.1171 0.000249031 23.1797 0.000350341 23.2442 0.00045472C24.2804 0.00326307 25.2944 0.0448562 26.3197 0.184252C26.3884 0.193199 26.457 0.202145 26.5278 0.211363C28.4692 0.472348 30.3149 1.07687 32.0249 1.90719C32.0802 1.9337 32.1355 1.96021 32.1924 1.98752C32.4601 2.12141 32.7148 2.26919 32.9687 2.42173C33.0509 2.47108 33.0509 2.47108 33.1348 2.52144C33.2457 2.58829 33.3563 2.65555 33.4666 2.72323C33.5176 2.75413 33.5686 2.78503 33.6212 2.81686C33.6671 2.84501 33.7131 2.87316 33.7604 2.90216C33.888 2.97695 33.888 2.97695 34.0762 2.96319C34.2018 2.88943 34.2018 2.88943 34.3366 2.78603C35.8047 1.7392 37.3816 0.848072 39.2685 0.517725C39.3159 0.508035 39.3633 0.498345 39.4122 0.488361C39.7677 0.435673 40.1317 0.449594 40.4916 0.448794C40.6361 0.448261 40.7805 0.446538 40.9249 0.444778C41.7445 0.439454 42.5466 0.50686 43.291 0.830355C43.3364 0.849601 43.3819 0.868846 43.4287 0.888675C43.8419 1.07064 44.1908 1.29476 44.525 1.57372C44.5769 1.61656 44.6289 1.65941 44.6825 1.70355C45.4921 2.42295 45.6474 3.263 45.6466 4.2261C45.6327 4.84905 45.4746 5.38246 45.2301 5.96444C45.2057 6.02328 45.1813 6.08212 45.1562 6.14274C45.0225 6.46357 44.8857 6.78327 44.7463 7.10229C44.6094 7.41613 44.479 7.73151 44.3527 8.04864C44.1939 8.44653 44.0285 8.84196 43.8594 9.23664C43.7284 9.5434 43.6027 9.85153 43.4793 10.1606C43.302 10.6041 43.1156 11.0443 42.9264 11.4841C42.72 11.9641 42.5186 12.4451 42.3254 12.9292C42.2937 13.0084 42.2937 13.0084 42.2613 13.0893C42.1744 13.3073 42.088 13.5253 42.0042 13.7442C41.5322 14.9485 40.7897 16.1246 39.4608 16.7467C38.1193 17.2715 36.5576 17.3625 35.1539 16.9586C33.8051 16.5104 32.9009 15.5542 32.1531 14.5236C32.128 14.4891 32.1028 14.4546 32.0769 14.419C31.6984 13.896 31.3742 13.3557 31.0634 12.8006C30.754 12.2506 30.4298 11.708 30.0978 11.168C30.0608 11.1072 30.0237 11.0464 29.9856 10.9838C29.7788 10.6497 29.558 10.3356 29.3018 10.0282C29.191 9.89438 29.0925 9.75502 28.992 9.61527C28.7327 9.29249 28.3996 9.14133 27.9659 9.0432C27.3743 8.96768 26.739 8.96547 26.1915 9.18801C26.1485 9.20413 26.1054 9.22025 26.0611 9.23686C25.2823 9.5478 24.5883 10.109 24.0979 10.7099C24.0554 10.7544 24.0554 10.7544 24.012 10.7998C23.9697 10.7998 23.9274 10.7998 23.8838 10.7998C23.864 10.8548 23.864 10.8548 23.8438 10.9109C23.7668 11.0566 23.6938 11.1531 23.5813 11.2774C23.3644 11.5248 23.1776 11.7835 22.9944 12.0503C22.9611 12.0986 22.9278 12.1469 22.8935 12.1967C22.623 12.5936 22.3787 12.9986 22.1497 13.4145C22.0804 13.5384 22.0081 13.6609 21.936 13.7837C21.437 14.6476 21.0286 15.5552 20.6778 16.4717C20.6183 16.626 20.5573 16.78 20.496 16.9339C20.1545 17.792 19.8395 18.6539 19.5609 19.5291C19.5479 19.57 19.5348 19.6109 19.5214 19.6531C19.4351 19.9251 19.3511 20.1976 19.2684 20.4705C19.2571 20.5076 19.2458 20.5448 19.2342 20.583C19.0766 21.1037 18.9448 21.6256 18.8354 22.1555C18.8117 22.2695 18.7873 22.3835 18.7629 22.4974C18.5711 23.4041 18.4763 24.2961 18.4789 25.2182C18.4792 25.3687 18.4776 25.5191 18.476 25.6695C18.4715 26.7385 18.6066 27.8202 19.5028 28.6247C19.7664 28.8372 20.0154 28.9371 20.3582 29.0296C20.4132 29.045 20.4132 29.045 20.4693 29.0607C21.8012 29.2856 23.4139 28.9467 24.5514 28.3486C24.7222 28.2522 24.7222 28.2522 24.8869 28.1284C25.0377 28.0292 25.0377 28.0292 25.23 28.0292C25.2511 27.9742 25.2723 27.9192 25.2941 27.8625C25.408 27.7732 25.408 27.7732 25.5465 27.6853C25.592 27.6559 25.6376 27.6264 25.6845 27.5961C25.8069 27.529 25.8069 27.529 25.9351 27.529C25.9351 27.4923 25.9351 27.4556 25.9351 27.4178C26.0203 27.3434 26.0203 27.3434 26.1435 27.2546C26.9764 26.6374 27.7245 25.9703 28.4529 25.2613C28.7758 24.9499 29.1122 24.651 29.4528 24.3541C29.5115 24.302 29.5703 24.2499 29.6308 24.1962C30.5502 23.3946 31.5502 22.8588 32.8783 22.843C34.4026 22.8525 35.6644 23.6141 36.7044 24.5277C37.5031 25.2691 37.9197 26.1231 37.9224 27.1399C37.8706 28.0388 37.4992 28.7745 36.9608 29.5298C36.9123 29.6095 36.8642 29.6894 36.8166 29.7695C36.5685 30.1595 36.2439 30.509 35.9352 30.8637C35.8928 30.9128 35.8928 30.9128 35.8496 30.963C35.5339 31.3288 35.2071 31.6806 34.8497 32.017C34.7329 32.1273 34.6206 32.2397 34.5089 32.3539C33.968 32.8902 33.3748 33.3685 32.73 33.8094C32.6124 33.8938 32.4949 33.9783 32.3775 34.063C32.0912 34.266 31.7978 34.4575 31.497 34.6442C31.3755 34.7196 31.2547 34.7959 31.1345 34.873C31.074 34.9117 31.0135 34.9505 30.9512 34.9904C30.8704 35.0425 30.8704 35.0425 30.7879 35.0955C30.6275 35.1912 30.4633 35.275 30.2935 35.3574C30.1478 35.4302 30.0058 35.5073 29.8637 35.5853C27.0963 37.1025 23.9424 37.9748 20.6667 38.1063C20.6113 38.1086 20.5559 38.111 20.4989 38.1134C18.6319 38.1881 16.7472 38.1162 14.9094 37.8111C14.8349 37.7987 14.7603 37.7864 14.6835 37.7737C13.7162 37.6101 12.7681 37.4129 11.8325 37.1441C11.7786 37.1289 11.7248 37.1136 11.6693 37.0979C10.9949 36.9054 10.3444 36.6918 9.70835 36.4175C9.58068 36.3625 9.45247 36.3084 9.32421 36.2544C8.84293 36.0504 8.37486 35.8371 7.9222 35.5879C7.85246 35.5502 7.78272 35.5125 7.71087 35.4737C6.7926 34.9737 5.90252 34.4139 5.1465 33.7371C5.03326 33.6351 5.03326 33.6351 4.87331 33.5315C4.69145 33.4021 4.54817 33.2585 4.39604 33.1034C4.30916 33.0165 4.21989 32.9314 4.12861 32.8481C3.24575 32.0399 2.56283 31.1204 1.96063 30.1412C1.92271 30.0796 1.92271 30.0796 1.88401 30.0167C-0.106248 26.7488 -0.34228 22.8398 0.358062 19.2478C0.368877 19.1912 0.379691 19.1345 0.390834 19.0762C0.881908 16.5394 1.78221 14.0107 3.05614 11.685C3.12502 11.5586 3.19283 11.4318 3.26072 11.305C3.58926 10.6948 3.93437 10.0998 4.33244 9.52148C4.36275 9.47738 4.39305 9.43329 4.42428 9.38785C4.81568 8.82189 5.225 8.26801 5.65857 7.72559C5.69705 7.67711 5.73553 7.62862 5.77518 7.57867C5.81099 7.53452 5.84679 7.49036 5.88368 7.44488C5.9153 7.40574 5.94693 7.3666 5.97951 7.32627C6.00713 7.29871 6.03476 7.27115 6.06322 7.24275C6.10553 7.24275 6.14784 7.24275 6.19143 7.24275C6.20704 7.20242 6.22266 7.16208 6.23875 7.12052C6.32958 6.94572 6.43701 6.83691 6.58806 6.69739C6.63987 6.64888 6.69168 6.60038 6.74507 6.55041C6.82005 6.48045 6.82005 6.48045 6.89656 6.40907C6.97174 6.33527 7.04656 6.26119 7.12092 6.18676C7.76251 5.54936 8.41404 4.91202 9.20426 4.40824C9.24657 4.40824 9.28888 4.40824 9.33247 4.40824C9.35362 4.35321 9.37478 4.29819 9.39657 4.2415C9.52778 4.14554 9.52778 4.14554 9.70106 4.04003C9.7651 4.00084 9.82914 3.96165 9.89512 3.92127C9.96329 3.88022 10.0315 3.83917 10.1017 3.79687C10.201 3.73615 10.201 3.73615 10.3023 3.67421C11.5774 2.89965 12.9119 2.22574 14.3165 1.64319C14.3633 1.62361 14.4102 1.60402 14.4585 1.58384C17.1369 0.487836 20.1062 -0.00985501 23.0545 0.000147721ZM19.0766 1.74089C18.8523 1.80504 18.6272 1.8389 18.395 1.87246C17.9422 1.9425 17.5215 2.0483 17.0889 2.18509C17.0014 2.21141 16.9139 2.2376 16.8262 2.26368C16.1503 2.46579 15.4874 2.68178 14.8483 2.96148C14.727 3.01445 14.6053 3.0665 14.4832 3.1182C13.2324 3.64941 13.2324 3.64941 12.0641 4.30251C11.9292 4.38765 11.7932 4.46958 11.6549 4.55044C10.8949 4.99501 10.2009 5.48272 9.52478 6.02002C9.45644 6.07345 9.38808 6.12686 9.3197 6.18024C8.89147 6.51624 8.48779 6.85964 8.11451 7.24275C8.08415 7.27366 8.05378 7.30456 8.02249 7.33641C7.44706 7.92481 6.93555 8.54317 6.44784 9.18801C6.41935 9.22552 6.39086 9.26304 6.36151 9.30169C5.43847 10.5255 4.58471 11.8681 4.01784 13.2472C3.9524 13.4012 3.88033 13.5508 3.8051 13.7014C3.5835 14.1601 3.39942 14.6296 3.21465 15.1002C3.19623 15.147 3.17781 15.1938 3.15884 15.242C2.87725 15.9593 2.61191 16.6761 2.40936 17.4137C2.39588 17.4617 2.3824 17.5096 2.36851 17.5591C1.71064 19.9288 1.40881 22.4215 1.75108 24.8496C1.76693 24.9624 1.78063 25.0755 1.79412 25.1886C1.90543 26.0379 2.12854 26.895 2.47346 27.6957C2.50023 27.7619 2.527 27.828 2.55459 27.8961C3.20809 29.4896 4.21495 30.8161 5.48629 32.0864C5.53736 32.1377 5.58843 32.1889 5.64104 32.2417C5.93313 32.5293 6.2381 32.785 6.57604 33.0313C6.63157 33.0752 6.63157 33.0752 6.68822 33.1201C8.12193 34.2533 9.89408 35.0677 11.7043 35.6435C11.793 35.6723 11.793 35.6723 11.8836 35.7017C12.6648 35.954 13.4355 36.1594 14.2563 36.288C14.4058 36.3119 14.5546 36.3381 14.7036 36.3645C15.0714 36.4286 15.4408 36.4829 15.8109 36.5362C15.8765 36.5459 15.9422 36.5555 16.0098 36.5654C16.1068 36.5794 16.1068 36.5794 16.2058 36.5938C16.2918 36.6062 16.2918 36.6062 16.3795 36.619C16.9355 36.6895 17.4787 36.7091 18.0409 36.7108C18.1042 36.711 18.1042 36.711 18.1688 36.7112C18.3928 36.7121 18.6169 36.7126 18.841 36.7128C19.0228 36.7131 19.2047 36.7138 19.3865 36.7151C20.8025 36.7248 22.1718 36.6551 23.5553 36.373C23.6283 36.3583 23.7014 36.3437 23.7766 36.3286C23.9836 36.2865 24.1902 36.2432 24.3967 36.1993C24.448 36.1886 24.4993 36.1778 24.5522 36.1668C26.8544 35.6752 29.1002 34.5382 30.9495 33.2753C31.0618 33.1991 31.1752 33.1245 31.2892 33.0502C32.1613 32.4765 33.0299 31.8147 33.7156 31.0721C34.0055 30.7593 34.0055 30.7593 34.1501 30.6106C35.2288 29.4977 36.3731 28.193 36.29 26.6758C36.2546 26.3264 36.1231 26.0793 35.8711 25.8061C35.8252 25.7556 35.7793 25.7052 35.7321 25.6532C35.1071 25.0168 34.2284 24.3748 33.2429 24.2498C32.3238 24.1861 31.7689 24.426 31.0634 24.9168C30.8253 25.1014 30.601 25.2981 30.3775 25.4958C30.2778 25.584 30.1773 25.6716 30.0768 25.7592C29.7653 26.0313 29.4604 26.3067 29.1725 26.5979C28.5333 27.2441 27.8496 27.8718 27.0802 28.4011C26.9514 28.4912 26.8267 28.5818 26.7031 28.6768C25.9972 29.2174 25.2156 29.6793 24.3325 29.9745C24.2641 29.9977 24.1957 30.0209 24.1252 30.0448C23.1526 30.3504 22.153 30.4933 21.1194 30.499C21.0549 30.4995 20.9904 30.5001 20.924 30.5007C19.9164 30.4905 19.0477 30.1768 18.3069 29.5854C16.8763 28.3144 16.865 26.4884 16.8833 24.8269C16.9176 22.7123 17.4617 20.5059 18.2509 18.5063C18.2972 18.384 18.3365 18.264 18.3702 18.1388C18.4567 17.8212 18.5834 17.5142 18.7035 17.2052C18.7291 17.1391 18.7547 17.073 18.7811 17.0048C19.5857 14.9316 19.5857 14.9316 20.0096 14.1415C20.0806 14.0076 20.1499 13.8735 20.2179 13.7385C21.0322 12.1251 21.9941 10.6069 23.371 9.29917C23.4236 9.24894 23.4761 9.19872 23.5303 9.14698C24.1017 8.62645 24.7866 8.19271 25.5505 7.9097C25.5944 7.89336 25.6383 7.87703 25.6835 7.8602C26.1884 7.68473 26.6906 7.61113 27.2332 7.61443C27.2861 7.61467 27.339 7.6149 27.3934 7.61514C28.4971 7.63265 29.3713 7.96415 30.1381 8.64677C30.3804 8.8831 30.5588 9.13829 30.7428 9.41032C30.7999 9.49074 30.857 9.57106 30.9144 9.65131C31.4888 10.4606 31.9957 11.2978 32.4813 12.1493C33.6895 14.3277 33.6895 14.3277 35.8741 15.6918C36.7202 15.9354 37.8135 15.8931 38.6275 15.5796C40.0921 14.8858 40.5112 13.2759 41.0233 12.0019C41.1502 11.6872 41.2813 11.3738 41.412 11.0603C41.6126 10.5783 41.8103 10.0955 42.0048 9.61155C42.1154 9.33645 42.2282 9.06219 42.3442 8.78875C42.3961 8.66439 42.4469 8.53982 42.497 8.4149C42.6524 8.0276 42.8114 7.64319 42.9905 7.26359C43.149 6.92516 43.2866 6.58384 43.4167 6.23647C43.4897 6.04258 43.5688 5.85087 43.6489 5.65912C43.994 4.82968 44.3091 4.00723 43.8919 3.14816C43.5554 2.5443 42.9864 2.20957 42.2814 1.96277C41.7931 1.82149 41.2967 1.82704 40.787 1.8273C40.7413 1.82728 40.6956 1.82725 40.6485 1.82723C39.8942 1.82936 39.2056 1.8874 38.4993 2.12951C38.453 2.1453 38.4068 2.16109 38.3592 2.17735C37.0028 2.65706 35.8615 3.49277 34.7227 4.27341C34.4886 4.43296 34.2514 4.58815 34.0121 4.74171C33.8283 4.66768 33.6779 4.58393 33.521 4.47293C33.4761 4.44161 33.4312 4.41028 33.3848 4.378C33.3367 4.34442 33.2885 4.31084 33.2388 4.27624C31.6371 3.18084 29.7738 2.32677 27.7944 1.88063C27.7096 1.86147 27.6249 1.84178 27.5404 1.82152C26.7379 1.62925 25.9234 1.55077 25.0964 1.47916C24.9837 1.46916 24.8712 1.45837 24.7589 1.44608C24.1972 1.38721 23.6314 1.39599 23.0665 1.39656C23.0108 1.39658 22.9552 1.39659 22.8978 1.39661C20.9618 1.39416 20.9618 1.39416 19.0766 1.74089Z" fill="#F9F8F8"/>
<path d="M63.7989 21.4685C65.0984 22.4572 65.9258 23.7988 66.0552 25.3018C66.2169 27.5552 65.3408 29.5895 63.899 31.4296C63.8294 31.5186 63.7605 31.608 63.6917 31.6974C63.6494 31.6974 63.6071 31.6974 63.5635 31.6974C63.5427 31.7418 63.5427 31.7418 63.5214 31.7871C63.4036 31.9685 63.246 32.1127 63.0827 32.2636C63.048 32.2958 63.0132 32.328 62.9775 32.3611C61.9309 33.3205 60.6672 34.068 59.2686 34.5875C59.2069 34.6107 59.2069 34.6107 59.1441 34.6344C56.1543 35.7475 52.3595 35.8582 49.3121 34.8339C47.5445 34.2073 46.1915 33.108 45.4224 31.5862C45.3474 31.4213 45.283 31.2573 45.2301 31.086C45.2088 31.0184 45.1876 30.9508 45.1657 30.8811C44.603 28.907 45.1377 26.6717 46.2954 24.9326C46.6615 24.4074 47.0596 23.8706 47.5378 23.4162C47.5801 23.4162 47.6224 23.4162 47.666 23.4162C47.6869 23.3709 47.6869 23.3709 47.7083 23.3248C47.8232 23.1496 47.9782 23.0178 48.1427 22.8778C48.1942 22.8337 48.1942 22.8337 48.2468 22.7887C48.7584 22.3563 49.3158 21.9863 49.9071 21.6407C50.0207 21.5741 50.1336 21.5065 50.2446 21.4366C51.2968 20.785 52.6688 20.3717 53.9195 20.1253C54.065 20.0964 54.2094 20.0633 54.3522 20.0259C57.3491 19.3227 61.3791 19.7191 63.7989 21.4685ZM55.7429 26.8065C55.807 26.9732 55.807 26.9732 55.807 26.9732L55.7429 26.8065ZM55.6788 27.0288C55.7429 27.1399 55.7429 27.1399 55.7429 27.1399L55.6788 27.0288ZM55.6147 27.1955C55.5936 27.2872 55.5724 27.3789 55.5506 27.4734C55.5929 27.4367 55.6352 27.4001 55.6788 27.3623C55.6577 27.3072 55.6365 27.2522 55.6147 27.1955ZM55.4865 27.529C55.5506 27.6402 55.5506 27.6402 55.5506 27.6402L55.4865 27.529ZM55.4224 27.6957C55.4865 27.8625 55.4865 27.8625 55.4865 27.8625L55.4224 27.6957ZM55.3583 27.8625C55.4224 28.0292 55.4224 28.0292 55.4224 28.0292L55.3583 27.8625ZM55.2301 28.2515C55.2942 28.3627 55.2942 28.3627 55.2942 28.3627L55.2301 28.2515ZM55.166 28.4183C55.2301 28.5294 55.2301 28.5294 55.2301 28.5294L55.166 28.4183Z" fill="#F07575"/>
<path d="M60.3944 3.0157C60.7456 3.28795 61.0154 3.55726 61.2558 3.908C61.3193 3.99054 61.3193 3.99054 61.384 4.07474C61.4052 3.57953 61.4263 3.08433 61.4481 2.57411C61.6025 2.50718 61.6989 2.51148 61.8714 2.51134C61.9643 2.51108 61.9643 2.51108 62.0592 2.51081C62.1618 2.51098 62.1618 2.51098 62.2664 2.51115C62.3392 2.5111 62.4119 2.51105 62.4868 2.51099C62.6435 2.51095 62.8002 2.51106 62.957 2.51129C63.1824 2.51157 63.4079 2.5113 63.6334 2.51094C65.3198 2.51056 67.0058 2.54456 68.6918 2.57411C68.6932 4.09493 68.6944 5.61575 68.6951 7.13657C68.6954 7.84266 68.6959 8.54875 68.6966 9.25484C68.6972 9.87002 68.6976 10.4852 68.6978 11.1004C68.6979 11.4263 68.6981 11.7523 68.6985 12.0783C68.699 12.3847 68.6991 12.6911 68.699 12.9975C68.699 13.1103 68.6992 13.2231 68.6994 13.3359C68.6997 13.4892 68.6996 13.6426 68.6995 13.7959C68.6997 13.8637 68.6997 13.8637 68.7 13.933C68.6991 14.2393 68.6991 14.2393 68.6277 14.3012C68.5214 14.3064 68.4149 14.3078 68.3085 14.3075C68.2405 14.3075 68.1725 14.3075 68.1024 14.3075C68.0284 14.3072 67.9544 14.307 67.8782 14.3067C67.8029 14.3066 67.7276 14.3065 67.65 14.3064C67.4083 14.3061 67.1666 14.3054 66.9249 14.3047C66.7615 14.3044 66.5981 14.3042 66.4348 14.3039C66.0332 14.3033 65.6317 14.3024 65.2302 14.3012C65.1879 14.2279 65.1456 14.1545 65.102 14.0789C65.0808 14.1523 65.0597 14.2256 65.0379 14.3012C63.8533 14.3012 62.6686 14.3012 61.4481 14.3012C61.427 13.8244 61.4058 13.3475 61.384 12.8562C61.2254 13.1038 61.2254 13.1038 61.0635 13.3564C60.5306 13.9872 59.8888 14.2369 59.0162 14.3898C57.9191 14.516 56.8094 14.3783 55.8712 13.8566C55.6461 13.695 55.4264 13.5299 55.2942 13.3008C55.3023 13.4022 55.3023 13.4022 55.3105 13.5055C55.3171 13.5936 55.3237 13.6817 55.3303 13.7698C55.3339 13.8144 55.3375 13.859 55.3412 13.9049C55.3495 14.0184 55.3542 14.132 55.3584 14.2456C55.2942 14.3012 55.2942 14.3012 55.1551 14.3079C55.0938 14.3078 55.0324 14.3077 54.9692 14.3075C54.8999 14.3075 54.8306 14.3075 54.7592 14.3075C54.6461 14.3071 54.6461 14.3071 54.5308 14.3067C54.454 14.3066 54.3773 14.3065 54.2982 14.3064C54.052 14.3061 53.8057 14.3054 53.5595 14.3047C53.393 14.3044 53.2265 14.3042 53.06 14.3039C52.6509 14.3033 52.2418 14.3024 51.8327 14.3012C51.7392 14.0788 51.6844 13.8792 51.6639 13.6434C51.6585 13.5843 51.6532 13.5252 51.6476 13.4643C51.6426 13.4035 51.6376 13.3426 51.6324 13.28C51.6268 13.2179 51.6213 13.1557 51.6156 13.0917C51.6021 12.9391 51.589 12.7865 51.5763 12.6339C51.4494 12.6155 51.3224 12.5972 51.1917 12.5783C51.1893 12.6447 51.1893 12.6447 51.1868 12.7125C51.1794 12.9133 51.1715 13.114 51.1636 13.3147C51.1611 13.3844 51.1586 13.4541 51.156 13.5259C51.152 13.6264 51.152 13.6264 51.1478 13.7289C51.1455 13.7906 51.1431 13.8523 51.1407 13.9159C51.1276 14.0789 51.1276 14.0789 51.0635 14.3012C49.8788 14.3012 48.6942 14.3012 47.4737 14.3012C47.4737 13.6135 47.4737 13.6135 47.5029 13.3639C47.5126 13.2786 47.5126 13.2786 47.5225 13.1917C47.5297 13.1316 47.5369 13.0715 47.5443 13.0097C47.5518 12.9447 47.5593 12.8797 47.567 12.8128C47.5917 12.5991 47.6168 12.3855 47.642 12.1719C47.6596 12.0203 47.6771 11.8687 47.6945 11.7171C47.7035 11.6395 47.7125 11.5619 47.7214 11.4843C47.7259 11.4455 47.7304 11.4067 47.735 11.3668C47.7487 11.2478 47.7625 11.1288 47.7763 11.0098C47.8622 10.2697 47.9449 9.52939 48.027 8.789C48.1549 7.63767 48.2835 6.48641 48.4133 5.33525C48.4341 5.15087 48.4549 4.96649 48.4755 4.78209C48.4984 4.57828 48.5214 4.37449 48.5444 4.1707C48.5509 4.11208 48.5575 4.05346 48.5642 3.99306C48.6182 3.5185 48.6875 3.04783 48.7558 2.57411C50.4904 2.55577 52.225 2.53743 54.0122 2.51853C54.2329 4.04924 54.2329 4.04924 54.2844 4.54889C54.2905 4.60643 54.2967 4.66397 54.303 4.72326C54.3225 4.90538 54.3416 5.08753 54.3607 5.26968C54.3882 5.52725 54.4158 5.7848 54.4434 6.04236C54.4536 6.13786 54.4536 6.13786 54.464 6.2353C54.5401 6.94422 54.6226 7.65257 54.7065 8.36081C54.7142 8.42599 54.7142 8.42599 54.722 8.49249C54.7314 8.57244 54.7409 8.65238 54.7505 8.73232C54.7707 8.90446 54.7814 9.07013 54.7814 9.24356C55.7651 9.21605 55.7651 9.21605 56.7686 9.18798C56.4277 8.89674 56.4277 8.89674 56.086 8.60614C55.1366 7.78908 54.5769 6.88931 54.5691 5.72126C54.5679 5.16984 54.5972 4.69957 54.8455 4.1859C54.8781 4.1125 54.8781 4.1125 54.9114 4.03761C55.2109 3.44152 55.7674 2.95419 56.4481 2.68527C57.6526 2.28916 59.3349 2.31832 60.3944 3.0157ZM59.3327 6.68694C59.3327 6.72362 59.3327 6.7603 59.3327 6.7981C59.4235 6.8777 59.4235 6.8777 59.5451 6.96136C60.1364 7.40082 60.6211 7.85547 61.0575 8.41162C61.1904 8.58494 61.1904 8.58494 61.384 8.74335C61.384 8.06474 61.384 7.38612 61.384 6.68694C60.7071 6.68694 60.0302 6.68694 59.3327 6.68694Z" fill="#F1EDD8"/>
<path d="M81.2479 20.6337C81.3156 20.6896 81.3828 20.746 81.4482 20.804C81.4833 20.7804 81.5184 20.7568 81.5546 20.7325C82.8244 19.918 84.2645 19.6584 85.8227 19.8298C87.1004 20.0221 88.2027 20.6245 88.9642 21.5369C89.2108 21.8775 89.3704 22.2606 89.5251 22.6381C89.5494 22.6943 89.5736 22.7505 89.5985 22.8085C89.9203 23.831 89.7004 25.1479 89.1125 26.0631C89.0384 26.1638 88.9624 26.2635 88.8841 26.3618C88.8479 26.4078 88.8117 26.4538 88.7744 26.5012C88.5941 26.7201 88.5941 26.7201 88.4995 26.8065C88.4572 26.8065 88.4149 26.8065 88.3713 26.8065C88.3501 26.8615 88.329 26.9165 88.3072 26.9732C88.2649 26.9732 88.2226 26.9732 88.179 26.9732C88.179 27.0099 88.179 27.0466 88.179 27.0844C88.0487 27.1705 87.9202 27.248 87.7823 27.324C87.7219 27.3575 87.7219 27.3575 87.6601 27.3917C86.5943 27.9638 85.2868 28.0689 84.0644 27.859C83.0796 27.6171 82.4383 27.0292 81.8969 26.3063C81.7739 26.4662 81.7211 26.5837 81.657 26.7656C81.6354 26.8267 81.6137 26.8877 81.5914 26.9506C81.5679 27.0176 81.5445 27.0847 81.5203 27.1538C81.4952 27.2249 81.47 27.296 81.4448 27.3671C81.3899 27.5222 81.3351 27.6775 81.2805 27.8327C81.1385 28.2362 80.9956 28.6394 80.8527 29.0426C80.8197 29.1358 80.7867 29.229 80.7537 29.3221C80.4593 30.1532 80.1627 30.9838 79.8456 31.8085C79.8967 31.8395 79.9477 31.8704 80.0004 31.9023C80.5577 32.2504 80.9894 32.5658 81.1655 33.1626C81.2528 33.6495 81.1192 34.0691 80.8072 34.4763C80.2904 35.0195 79.6631 35.1772 78.8757 35.2428C78.5521 35.2633 78.2289 35.2626 77.9046 35.2625C77.8285 35.2627 77.7524 35.2629 77.674 35.2631C77.4671 35.2635 77.2602 35.2637 77.0533 35.2637C76.9235 35.2638 76.7937 35.2639 76.6638 35.264C76.2093 35.2645 75.7547 35.2648 75.3001 35.2647C74.8791 35.2647 74.458 35.2653 74.0369 35.2662C73.6732 35.2669 73.3096 35.2672 72.9459 35.2671C72.7296 35.2671 72.5134 35.2673 72.2971 35.2679C69.6081 35.274 69.6081 35.274 68.7558 34.6431C68.3963 34.3141 68.243 33.9235 68.243 33.4759C68.301 32.9628 68.5288 32.5672 68.9481 32.1976C69.131 32.0792 69.3282 31.9826 69.5253 31.8833C69.9763 31.6466 70.0781 31.3434 70.2187 30.9262C70.2353 30.8779 70.252 30.8297 70.2691 30.7799C70.3048 30.6764 70.3402 30.5729 70.3755 30.4693C70.4497 30.2516 70.5248 30.0341 70.5999 29.8166C70.6375 29.7075 70.6751 29.5984 70.7126 29.4893C70.864 29.0492 71.0184 28.6101 71.1757 28.1716C71.1984 28.1082 71.2211 28.0447 71.2446 27.9794C71.4064 27.5295 71.5731 27.0811 71.7406 26.6328C72.0699 25.7512 72.3742 24.8633 72.6661 23.9719C72.5709 23.9169 72.5709 23.9169 72.4738 23.8608C72.4738 23.8241 72.4738 23.7874 72.4738 23.7496C72.4356 23.7361 72.3974 23.7225 72.3581 23.7086C72.047 23.5536 71.8816 23.234 71.7406 22.9576C71.6579 22.4797 71.69 21.9817 72.0251 21.5821C72.2069 21.3877 72.3917 21.198 72.602 21.0263C72.6443 21.0263 72.6866 21.0263 72.7302 21.0263C72.7302 20.9896 72.7302 20.9529 72.7302 20.9151C73.8832 20.401 75.042 20.0938 76.3199 19.9147C76.3865 19.9033 76.4532 19.8919 76.5218 19.8802C78.1 19.6352 79.9778 19.6811 81.2479 20.6337Z" fill="#F07575"/>
<path d="M111.977 20.6859C113.322 21.6684 114.139 23.0071 114.318 24.5262C114.418 25.6535 114.343 26.7551 114.077 27.8625C114.061 27.9291 114.061 27.9291 114.045 27.9971C113.828 28.9244 113.47 29.7948 112.987 30.6414C112.952 30.7065 112.917 30.7717 112.881 30.8388C112.286 31.9278 111.338 32.9357 110.23 33.6635C110.183 33.6947 110.136 33.7259 110.087 33.758C107.926 35.1566 105.192 35.7379 102.522 35.4051C102.115 35.3381 101.718 35.2453 101.32 35.1433C101.31 35.1811 101.3 35.2189 101.289 35.2579C101.216 35.5233 101.139 35.7858 101.039 36.0447C101.024 36.0842 101.009 36.1237 100.993 36.1643C100.963 36.2423 100.932 36.32 100.9 36.3975C100.818 36.6081 100.818 36.6081 100.849 36.8237C100.945 36.9325 101.046 37.0314 101.156 37.1302C101.543 37.5109 101.613 37.8476 101.6 38.3523C101.554 38.7116 101.401 39.0371 101.128 39.3117C101.085 39.3117 101.043 39.3117 101 39.3117C100.978 39.3667 100.957 39.4217 100.935 39.4784C100.175 39.9231 99.3733 39.9868 98.4814 39.9876C98.3649 39.988 98.3649 39.988 98.2462 39.9884C98.0345 39.9891 97.8228 39.9895 97.6112 39.9898C97.4785 39.9899 97.3459 39.9902 97.2132 39.9904C96.797 39.9912 96.3808 39.9917 95.9646 39.9919C95.4864 39.9922 95.0082 39.9931 94.5299 39.9948C94.1587 39.996 93.7875 39.9965 93.4163 39.9966C93.1953 39.9966 92.9743 39.997 92.7533 39.998C92.5064 39.9989 92.2594 39.9988 92.0125 39.9985C91.9045 39.9992 91.9045 39.9992 91.7944 40C91.006 39.9964 90.3097 39.8702 89.7315 39.382C89.3392 39.0052 89.2313 38.6794 89.2472 38.1741C89.3088 37.6127 89.6338 37.2433 90.1021 36.8662C90.3639 36.6858 90.6164 36.5138 90.9354 36.4216C90.9442 36.3811 90.953 36.3405 90.9621 36.2988C90.9961 36.158 91.0376 36.0233 91.0859 35.8858C91.1033 35.8361 91.1207 35.7865 91.1387 35.7354C91.1575 35.6821 91.1764 35.6289 91.1959 35.574C91.2155 35.5181 91.2352 35.4622 91.2555 35.4047C91.4251 34.9258 91.6015 34.449 91.7786 33.9722C91.9415 33.5326 92.0945 33.0911 92.2424 32.6475C92.3141 32.4346 92.3881 32.2224 92.4619 32.01C92.5704 31.6976 92.6781 31.385 92.7844 31.0719C93.0003 30.436 93.2197 29.8013 93.4475 29.1686C93.7251 28.395 93.999 27.6205 94.2713 26.8456C94.3455 26.6346 94.4198 26.4236 94.494 26.2126C94.7631 25.4478 95.0305 24.6826 95.2944 23.9164C95.2545 23.9001 95.2146 23.8838 95.1735 23.867C94.8202 23.706 94.48 23.3116 94.3612 22.9839C94.2457 22.4799 94.3184 21.9902 94.6294 21.5543C95.2819 20.7582 96.3626 20.4402 97.4098 20.1926C97.5301 20.1627 97.5301 20.1627 97.6527 20.1323C99.4819 19.7027 101.565 19.5135 103.29 20.3031C103.572 20.4536 103.819 20.6247 104.07 20.814C104.196 20.9171 104.196 20.9171 104.333 20.9707C104.405 20.9243 104.405 20.9243 104.479 20.8769C106.684 19.5036 109.728 19.1768 111.977 20.6859ZM105.038 21.9156C104.978 21.9604 104.918 22.0053 104.856 22.0515C104.508 22.3162 104.204 22.5807 103.948 22.916C103.938 22.8776 103.928 22.8393 103.918 22.7998C103.76 22.2509 103.522 21.7625 102.987 21.4153C102.2 21.0081 101.516 20.8948 100.603 20.9012C100.526 20.9016 100.45 20.9019 100.371 20.9023C99.8219 20.9076 99.2962 20.9368 98.756 21.0263C98.6846 21.0371 98.6132 21.0479 98.5396 21.0591C97.5472 21.2243 96.499 21.4749 95.7432 22.0823C95.5702 22.3072 95.5734 22.4852 95.6149 22.7492C95.775 23.0026 96.0506 23.1501 96.3186 23.3137C96.5126 23.467 96.5667 23.6211 96.5965 23.8434C96.5682 24.1039 96.4775 24.3352 96.3842 24.5833C96.3224 24.7511 96.2612 24.9191 96.1999 25.087C96.1831 25.1329 96.1663 25.1787 96.149 25.2259C96.0429 25.5167 95.9411 25.8084 95.8433 26.1013C95.7196 26.4716 95.5866 26.8389 95.4507 27.206C95.3289 27.5347 95.2092 27.8633 95.1021 28.1959C94.9961 28.5251 94.878 28.8502 94.7576 29.1755C94.504 29.8615 94.2634 30.5504 94.0327 31.2424C93.9952 31.3547 93.9577 31.467 93.9202 31.5793C93.9015 31.6355 93.8827 31.6917 93.8634 31.7496C93.7214 32.1722 93.5684 32.5912 93.4118 33.01C93.2442 33.463 93.0963 33.9204 92.9537 34.3798C92.852 34.7032 92.7347 35.0165 92.5994 35.3305C92.5236 35.5111 92.4589 35.6938 92.3951 35.8778C92.0847 36.7702 91.7427 37.2962 90.7975 37.7876C90.6251 37.9026 90.5636 38.0152 90.5315 38.2001C90.5304 38.3742 90.5343 38.5023 90.6189 38.6621C91.017 38.9627 91.4559 38.9463 91.9574 38.9433C92.0335 38.9435 92.1095 38.9437 92.1878 38.944C92.3954 38.9443 92.6029 38.944 92.8105 38.9432C93.0285 38.9426 93.2464 38.9428 93.4644 38.9429C93.8305 38.943 94.1966 38.9424 94.5627 38.9413C94.9848 38.9402 95.4068 38.94 95.8289 38.9403C96.2362 38.9406 96.6435 38.9403 97.0509 38.9397C97.2236 38.9394 97.3963 38.9394 97.569 38.9395C97.8108 38.9395 98.0526 38.9388 98.2943 38.9379C98.3653 38.938 98.4362 38.9382 98.5093 38.9383C99.0977 38.9348 99.6672 38.881 100.166 38.5892C100.331 38.4293 100.356 38.3437 100.375 38.1306C100.271 37.8602 100.092 37.736 99.8565 37.5438C99.6141 37.3314 99.5379 37.1485 99.5049 36.8482C99.5106 36.4839 99.6643 36.1404 99.7896 35.7963C99.8161 35.7221 99.8425 35.6478 99.8688 35.5735C99.9213 35.4255 99.9741 35.2775 100.027 35.1296C100.13 34.8428 100.231 34.5555 100.331 34.2679C100.347 34.2223 100.363 34.1768 100.379 34.1298C100.458 33.9178 100.458 33.9178 100.487 33.6982C100.562 33.7292 100.637 33.7601 100.715 33.792C102.779 34.5804 105.135 34.5744 107.251 33.9189C109.452 33.1719 111.062 31.6646 112.069 29.8425C113.086 27.7953 113.588 25.2886 112.629 23.161C112.179 22.2287 111.377 21.4763 110.292 21.0873C110.23 21.0672 110.167 21.047 110.102 21.0263C110.001 20.9935 110.001 20.9935 109.898 20.9601C108.186 20.4852 106.358 20.886 105.038 21.9156Z" fill="#F8F3ED"/>
<path d="M85.9354 3.07434C87.2046 3.07434 88.4738 3.07434 89.7815 3.07434C89.8238 3.38614 89.8662 3.69793 89.9097 4.01918C89.9365 4.17933 89.9641 4.33887 89.9939 4.49855C90.1052 5.11709 90.1929 5.73826 90.2834 6.35927C90.3661 6.92591 90.4516 7.49162 90.5534 8.05597C90.6306 8.48753 90.6872 8.92074 90.7431 9.35474C90.8756 8.69429 90.9892 8.03312 91.0887 7.36836C91.1291 7.09869 91.1702 6.8291 91.2113 6.55952C91.2199 6.50309 91.2285 6.44665 91.2374 6.38851C91.4067 5.28288 91.5893 4.17877 91.7687 3.07434C93.038 3.07434 94.3072 3.07434 95.6149 3.07434C95.6149 6.61415 95.6149 10.154 95.6149 13.801C94.8534 13.801 94.0918 13.801 93.3072 13.801C93.286 11.4717 93.2649 9.14243 93.2431 6.74254C93.1698 7.06023 93.1018 7.35579 93.0588 7.67348C92.9987 8.08173 92.9158 8.48487 92.8262 8.88899C92.764 9.1746 92.7127 9.45986 92.6697 9.74813C92.6048 10.182 92.525 10.6131 92.4426 11.0447C92.2986 11.7992 92.1607 12.554 92.0383 13.3114C92.0289 13.3684 92.0195 13.4254 92.0099 13.4841C92.0019 13.5336 91.9939 13.583 91.9857 13.634C91.961 13.7455 91.961 13.7455 91.8969 13.801C91.7353 13.806 91.5755 13.8074 91.4139 13.8065C91.3415 13.8063 91.3415 13.8063 91.2676 13.8062C91.1128 13.8059 90.958 13.8052 90.8032 13.8045C90.6985 13.8042 90.5938 13.804 90.489 13.8038C90.2318 13.8031 89.9746 13.8022 89.7174 13.801C89.627 13.5813 89.5648 13.3732 89.5271 13.1423C89.5166 13.0793 89.506 13.0162 89.4951 12.9512C89.4838 12.8832 89.4726 12.8151 89.461 12.745C89.415 12.4806 89.3683 12.2163 89.3215 11.952C89.3076 11.8734 89.2938 11.7947 89.2801 11.716C89.2599 11.6 89.2393 11.4841 89.2186 11.3682C89.2067 11.3003 89.1948 11.2324 89.1825 11.1625C89.1397 10.9627 89.0771 10.7727 89.0123 10.5775C88.9919 10.4765 88.9742 10.375 88.9595 10.2733C88.9506 10.2151 88.9418 10.157 88.9326 10.0971C88.9185 10.003 88.9185 10.003 88.9041 9.90705C88.7842 9.14005 88.6256 8.38084 88.4594 7.62049C88.4498 7.5766 88.4402 7.5327 88.4304 7.48747C88.4125 7.40559 88.3945 7.32373 88.3763 7.2419C88.3195 6.98248 88.281 6.72783 88.2431 6.46464C88.2219 8.88565 88.2008 11.3067 88.179 13.801C87.4386 13.801 86.6982 13.801 85.9354 13.801C85.9354 10.2612 85.9354 6.72142 85.9354 3.07434Z" fill="#04669B"/>
<path d="M81.2479 20.6337C81.3156 20.6896 81.3828 20.746 81.4482 20.804C81.4833 20.7804 81.5184 20.7568 81.5546 20.7325C82.8244 19.918 84.2645 19.6584 85.8227 19.8298C87.1004 20.0221 88.2027 20.6245 88.9642 21.5369C89.2108 21.8775 89.3704 22.2606 89.5251 22.6381C89.5494 22.6943 89.5736 22.7505 89.5985 22.8085C89.9203 23.831 89.7004 25.1479 89.1125 26.0631C89.0384 26.1638 88.9624 26.2635 88.8841 26.3618C88.8479 26.4078 88.8117 26.4538 88.7744 26.5012C88.5941 26.7201 88.5941 26.7201 88.4995 26.8065C88.4572 26.8065 88.4149 26.8065 88.3713 26.8065C88.3501 26.8615 88.329 26.9165 88.3072 26.9732C88.2649 26.9732 88.2226 26.9732 88.179 26.9732C88.179 27.0099 88.179 27.0466 88.179 27.0844C88.0487 27.1705 87.9202 27.248 87.7823 27.324C87.7219 27.3575 87.7219 27.3575 87.6601 27.3917C86.5943 27.9638 85.2868 28.0689 84.0644 27.859C83.0796 27.6171 82.4383 27.0292 81.8969 26.3063C81.7739 26.4662 81.7211 26.5837 81.657 26.7656C81.6354 26.8267 81.6137 26.8877 81.5914 26.9506C81.5679 27.0176 81.5445 27.0847 81.5203 27.1538C81.4952 27.2249 81.47 27.296 81.4448 27.3671C81.3899 27.5222 81.3351 27.6775 81.2805 27.8327C81.1385 28.2362 80.9956 28.6394 80.8527 29.0426C80.8197 29.1358 80.7867 29.229 80.7537 29.3221C80.4593 30.1532 80.1627 30.9838 79.8456 31.8085C79.8967 31.8395 79.9477 31.8704 80.0004 31.9023C80.5577 32.2504 80.9894 32.5658 81.1655 33.1626C81.2528 33.6495 81.1192 34.0691 80.8072 34.4763C80.2904 35.0195 79.6631 35.1772 78.8757 35.2428C78.5521 35.2633 78.2289 35.2626 77.9046 35.2625C77.8285 35.2627 77.7524 35.2629 77.674 35.2631C77.4671 35.2635 77.2602 35.2637 77.0533 35.2637C76.9235 35.2638 76.7937 35.2639 76.6638 35.264C76.2093 35.2645 75.7547 35.2648 75.3001 35.2647C74.8791 35.2647 74.458 35.2653 74.0369 35.2662C73.6732 35.2669 73.3096 35.2672 72.9459 35.2671C72.7296 35.2671 72.5134 35.2673 72.2971 35.2679C69.6081 35.274 69.6081 35.274 68.7558 34.6431C68.3963 34.3141 68.243 33.9235 68.243 33.4759C68.301 32.9628 68.5288 32.5672 68.9481 32.1976C69.131 32.0792 69.3282 31.9826 69.5253 31.8833C69.9763 31.6466 70.0781 31.3434 70.2187 30.9262C70.2353 30.8779 70.252 30.8297 70.2691 30.7799C70.3048 30.6764 70.3402 30.5729 70.3755 30.4693C70.4497 30.2516 70.5248 30.0341 70.5999 29.8166C70.6375 29.7075 70.6751 29.5984 70.7126 29.4893C70.864 29.0492 71.0184 28.6101 71.1757 28.1716C71.1984 28.1082 71.2211 28.0447 71.2446 27.9794C71.4064 27.5295 71.5731 27.0811 71.7406 26.6328C72.0699 25.7512 72.3742 24.8633 72.6661 23.9719C72.5709 23.9169 72.5709 23.9169 72.4738 23.8608C72.4738 23.8241 72.4738 23.7874 72.4738 23.7496C72.4356 23.7361 72.3974 23.7225 72.3581 23.7086C72.047 23.5536 71.8816 23.234 71.7406 22.9576C71.6579 22.4797 71.69 21.9817 72.0251 21.5821C72.2069 21.3877 72.3917 21.198 72.602 21.0263C72.6443 21.0263 72.6866 21.0263 72.7302 21.0263C72.7302 20.9896 72.7302 20.9529 72.7302 20.9151C73.8832 20.401 75.042 20.0938 76.3199 19.9147C76.3865 19.9033 76.4532 19.8919 76.5218 19.8802C78.1 19.6352 79.9778 19.6811 81.2479 20.6337ZM75.8712 21.0818C75.8191 21.0898 75.767 21.0978 75.7133 21.1061C74.7888 21.2551 73.7227 21.5165 73.0707 22.1344C72.9646 22.3491 72.9053 22.5242 72.9866 22.7492C73.1367 22.9189 73.3132 23.0545 73.4994 23.1938C73.9351 23.5552 73.9351 23.5552 73.9637 23.8599C73.96 24.1418 73.8475 24.3954 73.7438 24.6597C73.7021 24.7693 73.6606 24.879 73.6191 24.9886C73.5986 25.0425 73.5781 25.0965 73.5569 25.152C73.478 25.363 73.4059 25.5755 73.3352 25.7887C73.2283 26.1087 73.1156 26.4266 72.9986 26.7439C72.838 27.1799 72.6869 27.618 72.5379 28.057C72.3326 28.6615 72.1185 29.2631 71.8968 29.8633C71.8312 30.0415 71.7658 30.2199 71.7005 30.3982C71.6845 30.4418 71.6684 30.4853 71.6519 30.5301C71.5735 30.7445 71.4985 30.9591 71.4303 31.1761C71.1929 31.9303 70.9449 32.3851 70.1661 32.809C70.0691 32.8682 69.9729 32.9283 69.8776 32.9896C69.8373 33.0151 69.797 33.0406 69.7554 33.0669C69.5764 33.1993 69.5268 33.2951 69.501 33.4967C69.5294 33.7351 69.5825 33.8127 69.7815 33.9761C70.1608 34.2056 70.5758 34.1663 71.0195 34.1644C71.1065 34.1647 71.1936 34.165 71.2806 34.1653C71.5162 34.1661 71.7518 34.1658 71.9874 34.1652C72.2345 34.1648 72.4816 34.1652 72.7287 34.1655C73.1437 34.1658 73.5588 34.1654 73.9738 34.1646C74.4528 34.1637 74.9317 34.164 75.4107 34.1649C75.8227 34.1657 76.2346 34.1658 76.6466 34.1653C76.8923 34.1651 77.138 34.165 77.3838 34.1656C77.615 34.1661 77.8461 34.1657 78.0773 34.1648C78.202 34.1644 78.3267 34.1649 78.4514 34.1655C79.1121 34.1615 79.1121 34.1615 79.6907 33.9053C79.845 33.766 79.9103 33.6407 79.9658 33.4551C79.8623 33.0832 79.4744 32.89 79.1204 32.6874C78.8485 32.5284 78.6922 32.3645 78.6277 32.0864C78.5751 31.6309 78.7344 31.2472 78.8999 30.822C78.9831 30.6064 79.0616 30.3894 79.1405 30.1724C79.1567 30.128 79.173 30.0836 79.1897 30.0378C79.3091 29.7099 79.422 29.3807 79.5326 29.0506C79.6254 28.7747 79.7243 28.5008 79.8256 28.2272C79.999 27.7586 80.1577 27.2867 80.3162 26.8142C81.026 24.7004 81.026 24.7004 81.4442 24.4548C81.6157 24.4052 81.7167 24.3905 81.8969 24.4166C82.2442 24.6255 82.4045 24.8546 82.594 25.1773C82.8349 25.569 83.0828 25.925 83.4354 26.2507C83.4952 26.306 83.4952 26.306 83.5563 26.3625C84.0748 26.7975 84.6642 26.8972 85.3638 26.8922C86.2568 26.8611 87.0206 26.5502 87.6461 26.0006C88.3864 25.2555 88.515 24.3043 88.4354 23.3606C88.3972 23.1449 88.3355 22.9519 88.2431 22.7492C88.222 22.7027 88.2009 22.6562 88.1792 22.6083C87.8647 21.9977 87.257 21.4303 86.5441 21.165C85.4593 20.8207 84.2717 20.7816 83.179 21.1374C82.4791 21.4346 81.9208 21.9193 81.4221 22.4296C81.32 22.5269 81.32 22.5269 81.1918 22.5825C81.1891 22.5378 81.1865 22.4931 81.1838 22.447C81.0535 21.9872 80.6312 21.5459 80.1721 21.2922C78.8606 20.6943 77.2775 20.8554 75.8712 21.0818Z" fill="#F7F2EC"/>
<path d="M63.7989 21.4685C65.0984 22.4572 65.9258 23.7988 66.0552 25.3018C66.2169 27.5552 65.3408 29.5895 63.899 31.4296C63.8294 31.5186 63.7605 31.608 63.6917 31.6974C63.6494 31.6974 63.6071 31.6974 63.5635 31.6974C63.5427 31.7418 63.5427 31.7418 63.5214 31.7871C63.4036 31.9685 63.246 32.1127 63.0827 32.2636C63.048 32.2958 63.0132 32.328 62.9775 32.3611C61.9309 33.3205 60.6672 34.068 59.2686 34.5875C59.2069 34.6107 59.2069 34.6107 59.1441 34.6344C56.1543 35.7475 52.3595 35.8582 49.3121 34.8339C47.5445 34.2073 46.1915 33.108 45.4224 31.5862C45.3474 31.4213 45.283 31.2573 45.2301 31.086C45.2088 31.0184 45.1876 30.9508 45.1657 30.8811C44.603 28.907 45.1377 26.6717 46.2954 24.9326C46.6615 24.4074 47.0596 23.8706 47.5378 23.4162C47.5801 23.4162 47.6224 23.4162 47.666 23.4162C47.6869 23.3709 47.6869 23.3709 47.7083 23.3248C47.8232 23.1496 47.9782 23.0178 48.1427 22.8778C48.1942 22.8337 48.1942 22.8337 48.2468 22.7887C48.7584 22.3563 49.3158 21.9863 49.9071 21.6407C50.0207 21.5741 50.1336 21.5065 50.2446 21.4366C51.2968 20.785 52.6688 20.3717 53.9195 20.1253C54.065 20.0964 54.2094 20.0633 54.3522 20.0259C57.3491 19.3227 61.3791 19.7191 63.7989 21.4685ZM54.2686 21.1374C54.2137 21.1489 54.1588 21.1603 54.1023 21.1721C51.8256 21.6793 49.6959 22.8092 48.2429 24.4166C48.2009 24.4585 48.1589 24.5004 48.1157 24.5436C47.1043 25.5661 46.6177 26.8431 46.3198 28.1404C46.3083 28.1846 46.2967 28.2288 46.2848 28.2744C46.1263 29.0586 46.1799 29.9914 46.448 30.7526C46.4612 30.8007 46.4743 30.8489 46.4878 30.8985C46.8009 31.9774 47.8469 32.9182 48.9205 33.4779C50.1828 34.1049 51.7188 34.3727 53.1668 34.3745C53.2189 34.3747 53.271 34.3749 53.3247 34.3751C53.4343 34.3754 53.544 34.3755 53.6537 34.3755C53.8177 34.3756 53.9816 34.3766 54.1456 34.3777C55.0669 34.3805 55.968 34.3238 56.8647 34.129C56.921 34.117 56.9773 34.1049 57.0353 34.0926C58.8669 33.6895 60.4557 32.937 61.8327 31.8086C61.9096 31.7473 61.9096 31.7473 61.988 31.6848C62.6362 31.1497 63.2113 30.4959 63.6276 29.8077C63.6467 29.7765 63.6658 29.7453 63.6855 29.7132C64.6234 28.1604 65.1043 26.2503 64.6645 24.5136C64.4563 23.9384 64.1037 23.3998 63.6917 22.916C63.652 22.8678 63.6124 22.8197 63.5715 22.7701C62.7367 21.9611 61.6287 21.4445 60.4225 21.193C60.3529 21.1777 60.2833 21.1624 60.2116 21.1466C59.1867 20.9364 58.1574 20.9046 57.1091 20.9012C57.0623 20.9009 57.0155 20.9007 56.9673 20.9003C56.0589 20.896 55.1544 20.9527 54.2686 21.1374Z" fill="#F8F3ED"/>
<path d="M96.7047 3.07434C101.281 3.07434 101.281 3.07434 101.946 3.61037C102.582 4.17985 102.615 4.89055 102.618 5.64138C102.62 5.71235 102.621 5.78331 102.622 5.85643C102.625 6.43709 102.549 7.01168 102.089 7.46506C101.906 7.59031 101.715 7.69758 101.512 7.79853C101.549 7.82239 101.586 7.84625 101.625 7.87083C102.371 8.35934 102.577 8.77642 102.73 9.57705C102.757 9.8393 102.761 10.099 102.758 10.3621C102.758 10.4318 102.758 10.5015 102.757 10.5733C102.739 11.5471 102.572 12.5136 101.821 13.2765C100.47 14.2918 98.2132 13.7455 96.7047 13.7455C96.7047 10.224 96.7047 6.70252 96.7047 3.07434Z" fill="#01649A"/>
<path d="M62.025 3.07434C62.8712 3.07434 63.7173 3.07434 64.5891 3.07434C64.9968 4.74744 64.9968 4.74744 65.125 5.51351C65.2494 6.20602 65.4435 6.89299 65.6148 7.57622C65.6359 6.0906 65.6571 4.60498 65.6789 3.07434C66.4827 3.07434 67.2866 3.07434 68.1148 3.07434C68.1148 6.61415 68.1148 10.154 68.1148 13.801C67.311 13.801 66.5071 13.801 65.6789 13.801C65.5691 13.7058 65.5781 13.5736 65.5552 13.4437C65.4977 13.1319 65.4274 12.8243 65.3504 12.5158C65.2389 12.0624 65.135 11.6081 65.0356 11.1526C65.0186 11.0746 65.0186 11.0746 65.0012 10.9951C64.944 10.7324 64.8871 10.4697 64.8306 10.207C64.8093 10.1087 64.788 10.0103 64.7667 9.91205C64.7571 9.86722 64.7476 9.8224 64.7378 9.77622C64.7285 9.73378 64.7193 9.69133 64.7098 9.6476C64.7019 9.61102 64.6941 9.57444 64.686 9.53675C64.641 9.36306 64.5814 9.19243 64.525 9.02127C64.5039 10.5986 64.4827 12.1759 64.4609 13.801C63.6571 13.801 62.8532 13.801 62.025 13.801C62.025 10.2612 62.025 6.72142 62.025 3.07434Z" fill="#04669B"/>
<path d="M110.551 3.12988C115.408 3.12988 115.408 3.12988 115.936 3.57451C116.515 4.19506 116.544 4.98409 116.534 5.74698C116.532 5.87147 116.533 5.99589 116.533 6.12039C116.532 6.72344 116.518 7.37201 116.023 7.84279C115.815 8.00723 115.649 8.11669 115.359 8.13197C115.359 8.16865 115.359 8.20533 115.359 8.24313C115.404 8.24771 115.449 8.2523 115.495 8.25702C115.786 8.32288 115.994 8.44117 116.176 8.64955C116.356 8.98562 116.403 9.29171 116.399 9.65559C116.399 9.70065 116.399 9.7457 116.399 9.79211C116.399 9.93977 116.398 10.0874 116.397 10.2351C116.397 10.3379 116.396 10.4408 116.396 10.5437C116.396 10.8135 116.394 11.0833 116.393 11.3531C116.392 11.6773 116.391 12.0016 116.39 12.3258C116.389 12.8175 116.386 13.3093 116.384 13.801C115.58 13.801 114.777 13.801 113.948 13.801C113.946 13.4699 113.944 13.1389 113.941 12.7978C113.939 12.5883 113.937 12.3788 113.935 12.1694C113.931 11.8367 113.928 11.5041 113.926 11.1714C113.924 10.9033 113.922 10.6352 113.919 10.3671C113.918 10.2647 113.917 10.1623 113.916 10.0599C113.916 9.91671 113.914 9.77355 113.912 9.63036C113.912 9.58782 113.912 9.54528 113.912 9.50146C113.907 9.25548 113.902 9.20371 113.692 9.02123C113.459 8.98455 113.227 8.94787 112.987 8.91007C112.987 10.5057 112.987 12.1014 112.987 13.7454C112.183 13.7454 111.379 13.7454 110.551 13.7454C110.551 10.2423 110.551 6.73917 110.551 3.12988Z" fill="#01649A"/>
<path d="M104.397 3.07434C105.793 3.07434 107.189 3.07434 108.628 3.07434C108.846 4.89913 108.846 4.89913 108.92 5.66917C108.972 6.19694 109.028 6.72378 109.1 7.24979C109.142 7.56004 109.162 7.86977 109.179 8.18152C109.199 8.49108 109.248 8.79309 109.303 9.09942C109.347 9.39523 109.361 9.69074 109.375 9.98868C109.394 10.2658 109.445 10.5384 109.492 10.8128C109.548 11.1629 109.587 11.5143 109.625 11.8662C109.63 11.9034 109.634 11.9405 109.638 11.9788C109.705 12.5859 109.753 13.1916 109.782 13.801C108.999 13.801 108.216 13.801 107.41 13.801C107.389 13.5798 107.368 13.3586 107.346 13.1306C107.336 13.0271 107.336 13.0271 107.325 12.9215C107.32 12.8661 107.315 12.8106 107.31 12.7535C107.304 12.6973 107.299 12.6412 107.293 12.5833C107.281 12.3967 107.282 12.2095 107.282 12.0225C106.774 12.0225 106.266 12.0225 105.743 12.0225C105.739 12.1462 105.735 12.27 105.731 12.3975C105.727 12.5168 105.723 12.6362 105.719 12.7556C105.717 12.8388 105.714 12.922 105.711 13.0051C105.708 13.1245 105.704 13.2438 105.699 13.3631C105.697 13.435 105.695 13.5069 105.692 13.581C105.679 13.7455 105.679 13.7455 105.615 13.801C105.439 13.806 105.265 13.8074 105.09 13.8065C105.037 13.8064 104.985 13.8063 104.931 13.8062C104.762 13.8059 104.594 13.8052 104.425 13.8045C104.311 13.8042 104.197 13.804 104.083 13.8038C103.803 13.8031 103.523 13.8022 103.243 13.801C103.421 11.4558 103.421 11.4558 103.557 10.5692C103.612 10.2022 103.654 9.83574 103.687 9.46676C103.752 8.77815 103.824 8.09032 103.899 7.40254C103.921 7.20469 103.942 7.00683 103.963 6.80897C103.977 6.68189 103.991 6.55481 104.005 6.42774C104.011 6.36921 104.017 6.31068 104.024 6.25038C104.053 5.98602 104.088 5.72595 104.141 5.46423C104.152 5.3639 104.162 5.26343 104.17 5.16289C104.178 5.07723 104.178 5.07723 104.186 4.98985C104.195 4.87334 104.205 4.75683 104.215 4.64032C104.261 4.11582 104.33 3.5984 104.397 3.07434Z" fill="#03659A"/>
<path d="M49.2685 3.07434C50.6646 3.07434 52.0608 3.07434 53.4993 3.07434C53.5495 3.33588 53.5756 3.58241 53.5874 3.8455C53.6086 4.23939 53.6556 4.62692 53.7159 5.01764C53.8252 5.75206 53.9062 6.48803 53.984 7.22538C53.9975 7.35134 54.011 7.47729 54.0245 7.60325C54.0508 7.84864 54.0769 8.09404 54.103 8.33945C54.1325 8.61659 54.1629 8.89366 54.1937 9.1707C54.244 9.62315 54.2902 10.0755 54.3286 10.5288C54.3842 11.1581 54.4619 11.7845 54.5452 12.4114C54.5598 12.5226 54.5744 12.6338 54.589 12.745C54.5956 12.7943 54.6022 12.8436 54.609 12.8944C54.6475 13.1985 54.6588 13.4951 54.6531 13.801C54.3256 13.8024 53.9982 13.8034 53.6707 13.8041C53.5592 13.8044 53.4477 13.8048 53.3362 13.8052C53.1763 13.8059 53.0164 13.8062 52.8565 13.8065C52.8063 13.8068 52.7562 13.807 52.7045 13.8073C52.5848 13.8073 52.4651 13.8045 52.3454 13.801C52.2382 13.7081 52.2591 13.5897 52.247 13.4619C52.2414 13.4037 52.2359 13.3454 52.2301 13.2854C52.2245 13.224 52.219 13.1626 52.2132 13.0994C52.2074 13.0392 52.2016 12.9791 52.1956 12.9172C52.1674 12.6163 52.1531 12.3255 52.1531 12.0225C51.6666 12.0409 51.18 12.0592 50.6787 12.0781C50.6702 12.1978 50.6617 12.3175 50.6529 12.4409C50.6445 12.5564 50.636 12.6719 50.6275 12.7874C50.6216 12.8679 50.6158 12.9484 50.6101 13.0289C50.602 13.1444 50.5935 13.2598 50.5848 13.3753C50.5798 13.4449 50.5748 13.5144 50.5696 13.5861C50.5505 13.7455 50.5505 13.7455 50.4864 13.801C50.3109 13.806 50.1369 13.8074 49.9613 13.8065C49.9088 13.8064 49.8562 13.8063 49.8021 13.8062C49.6336 13.8059 49.465 13.8052 49.2965 13.8045C49.1825 13.8042 49.0686 13.804 48.9546 13.8038C48.6746 13.8031 48.3946 13.8022 48.1146 13.801C48.1508 13.3503 48.1888 12.8999 48.2348 12.4498C48.2402 12.3968 48.2456 12.3439 48.2511 12.2894C48.2631 12.1721 48.2751 12.0548 48.2871 11.9376C48.301 11.8026 48.3148 11.6676 48.3285 11.5326C48.4163 10.6695 48.5094 9.80734 48.6191 8.94608C48.6956 8.33895 48.7587 7.7309 48.8196 7.12247C48.8235 7.0848 48.8273 7.04714 48.8312 7.00833C48.8416 6.90614 48.8518 6.80395 48.862 6.70175C48.8829 6.52834 48.9148 6.35865 48.948 6.18675C48.9594 6.08512 48.9693 5.98335 48.9778 5.8815C48.9827 5.82443 48.9876 5.76735 48.9927 5.70855C48.9978 5.64856 49.0028 5.58856 49.0081 5.52675C49.0436 5.12232 49.0829 4.72004 49.1443 4.31792C49.2048 3.90516 49.2366 3.4895 49.2685 3.07434Z" fill="#03659A"/>
<path d="M79.0123 3.07434C79.8161 3.07434 80.62 3.07434 81.4482 3.07434C81.4491 3.32485 81.4501 3.57536 81.451 3.83346C81.4542 4.66069 81.4585 5.48791 81.4633 6.31514C81.4662 6.81674 81.4687 7.31833 81.4704 7.81993C81.4719 8.25718 81.474 8.69443 81.4769 9.13167C81.4785 9.36314 81.4797 9.5946 81.4801 9.82607C81.4805 10.0441 81.4818 10.2621 81.4837 10.4801C81.4843 10.56 81.4845 10.6398 81.4844 10.7197C81.4752 11.2846 81.4752 11.2846 81.7046 11.8002C81.8822 11.8772 82.0208 11.8662 82.2174 11.8558C82.4365 11.7291 82.4644 11.6797 82.5379 11.4667C82.5577 11.2981 82.5577 11.2981 82.5558 11.1147C82.5565 11.0437 82.5572 10.9727 82.558 10.8996C82.5581 10.8213 82.5582 10.743 82.5584 10.6648C82.559 10.5821 82.5596 10.4993 82.5603 10.4166C82.5621 10.1924 82.563 9.96813 82.5639 9.74389C82.5649 9.50941 82.5666 9.27494 82.5682 9.04047C82.5712 8.59661 82.5736 8.15275 82.5757 7.70889C82.5782 7.20351 82.5813 6.69813 82.5846 6.19275C82.5912 5.15328 82.5968 4.11381 82.602 3.07434C83.4059 3.07434 84.2097 3.07434 85.0379 3.07434C85.0437 4.16867 85.0485 5.26299 85.0512 6.35732C85.0525 6.86551 85.0543 7.3737 85.0573 7.88189C85.0599 8.32516 85.0615 8.76843 85.0621 9.21171C85.0624 9.44612 85.0632 9.68052 85.0651 9.91492C85.0668 10.1362 85.0673 10.3575 85.0669 10.5788C85.067 10.6594 85.0675 10.74 85.0685 10.8205C85.0786 11.6812 84.8896 12.6123 84.1906 13.2678C83.5533 13.7622 82.7923 13.886 81.961 13.8809C81.8967 13.882 81.8324 13.8832 81.7662 13.8843C81.0727 13.8839 80.4412 13.6928 79.9097 13.3008C79.1188 12.5812 78.9816 11.6743 78.9904 10.7153C78.9905 10.6314 78.9905 10.5475 78.9904 10.4636C78.9903 10.2382 78.9914 10.0129 78.9928 9.78752C78.994 9.55112 78.9941 9.31472 78.9943 9.07832C78.9949 8.63172 78.9965 8.18512 78.9984 7.73852C79.0006 7.22964 79.0016 6.72075 79.0026 6.21187C79.0046 5.16602 79.0081 4.12018 79.0123 3.07434Z" fill="#04669B"/>
<path d="M60.2449 3.55193C60.8746 4.04369 61.0461 4.76873 61.1181 5.46593C61.1308 5.6874 61.1276 5.90938 61.1276 6.13113C60.3026 6.13113 59.4776 6.13113 58.6276 6.13113C58.6064 5.83768 58.5853 5.54422 58.5635 5.24187C58.3499 5.01825 58.3499 5.01825 58.1766 4.99199C57.9148 4.99431 57.9148 4.99431 57.6838 5.08773C57.577 5.21629 57.5762 5.29631 57.5779 5.45377C57.5774 5.49998 57.5769 5.54619 57.5764 5.5938C57.6793 6.19154 58.3852 6.64696 58.8582 7.04927C58.902 7.08656 58.9458 7.12385 58.9909 7.16227C59.1732 7.31725 59.3555 7.47219 59.539 7.62602C60.3854 8.3364 61.1404 9.05749 61.201 10.1311C61.2026 10.3192 61.2036 10.5074 61.2037 10.6955C61.2045 10.76 61.2053 10.8245 61.2061 10.8909C61.2072 11.4883 61.1471 12.0491 60.8551 12.5956C60.8353 12.6336 60.8154 12.6716 60.7949 12.7107C60.5263 13.2062 60.1736 13.5308 59.5798 13.7378C59.131 13.865 58.7128 13.8817 58.2429 13.8774C58.1717 13.8781 58.1005 13.8787 58.0271 13.8794C57.297 13.8771 56.6123 13.7325 56.0529 13.3062C55.7037 12.9927 55.5223 12.653 55.3583 12.2448C55.3357 12.1923 55.313 12.1398 55.2897 12.0857C55.1245 11.6023 55.1585 11.1047 55.162 10.6052C55.1633 10.3393 55.1646 10.0733 55.166 9.79933C55.9699 9.79933 56.7737 9.79933 57.6019 9.79933C57.6219 10.6434 57.6219 10.6434 57.6268 10.9083C57.6289 10.9776 57.631 11.0469 57.6332 11.1182C57.6349 11.189 57.6366 11.2597 57.6383 11.3326C57.6676 11.5329 57.7189 11.6402 57.8583 11.8002C58.0538 11.8849 58.22 11.8688 58.4353 11.8557C58.6029 11.754 58.6256 11.694 58.6917 11.5223C58.7515 10.726 58.6337 10.2079 58.0506 9.57701C57.9147 9.44777 57.7718 9.32592 57.6267 9.20446C57.5459 9.1355 57.465 9.06654 57.3842 8.99756C57.2591 8.89147 57.1338 8.78553 57.0083 8.67975C56.0241 7.8483 55.1831 7.03225 55.1511 5.78362C55.1434 4.92983 55.3291 4.15878 56.0392 3.52588C57.1883 2.63588 59.0596 2.8176 60.2449 3.55193Z" fill="#02659A"/>
<path d="M75.1621 3.0049C75.2284 3.00447 75.2946 3.00404 75.3628 3.0036C76.1713 3.00538 76.8554 3.14966 77.4618 3.63711C77.7494 3.90312 77.9133 4.17691 78.0508 4.51942C78.0712 4.57022 78.0916 4.62102 78.1126 4.67335C78.2877 5.18471 78.2431 5.56073 78.2431 6.13121C77.4181 6.13121 76.5931 6.13121 75.7431 6.13121C75.7219 5.81941 75.7008 5.50761 75.679 5.18637C75.4691 5.00338 75.4691 5.00338 75.1982 4.99532C75.0118 5.00215 74.9323 5.00598 74.7775 5.09953C74.6651 5.36592 74.6482 5.60782 74.7839 5.87127C75.0393 6.24403 75.3441 6.53619 75.703 6.83636C75.7551 6.88096 75.8071 6.92556 75.8608 6.97151C76.1381 7.20751 76.4224 7.43344 76.7163 7.65369C77.5642 8.30348 78.2792 9.13908 78.363 10.1457C78.3671 10.2219 78.3671 10.2219 78.3713 10.2996C78.3747 10.3567 78.3781 10.4138 78.3815 10.4726C78.4097 11.3939 78.2506 12.5292 77.5342 13.2509C76.9082 13.7816 76.2082 13.8852 75.3584 13.8775C75.2872 13.8781 75.216 13.8788 75.1426 13.8794C74.3735 13.8771 73.6882 13.7129 73.1121 13.2516C72.1213 12.3193 72.2674 10.9762 72.2815 9.7994C73.0854 9.7994 73.8892 9.7994 74.7174 9.7994C74.7415 10.5567 74.7415 10.5567 74.7481 10.7937C74.7503 10.856 74.7526 10.9184 74.755 10.9826C74.757 11.0461 74.759 11.1095 74.7611 11.1749C74.7867 11.4014 74.8446 11.6 74.9858 11.7933C75.1779 11.8967 75.3312 11.8792 75.5508 11.8558C75.7033 11.7817 75.7033 11.7817 75.8072 11.6335C75.8492 11.448 75.8497 11.2664 75.8472 11.0777C75.8469 11.0254 75.8465 10.9731 75.8462 10.9192C75.8216 10.2086 75.4307 9.72672 74.8456 9.24362C74.7504 9.17484 74.7504 9.17484 74.6533 9.10467C74.3043 8.85253 74.01 8.56309 73.7088 8.26947C73.5872 8.15437 73.4626 8.04747 73.3312 7.94099C72.6322 7.34335 72.2742 6.53856 72.2615 5.70047C72.2649 4.89643 72.5146 4.10249 73.1789 3.51901C73.8151 3.08684 74.3743 2.99981 75.1621 3.0049Z" fill="#02659A"/>
<path d="M57.4576 23.2008C57.691 23.3694 57.7828 23.5585 57.8197 23.8183C57.8139 24.5809 57.6772 25.3097 57.4188 26.0391C57.3555 26.2218 57.2961 26.4048 57.2385 26.5888C57.0612 27.1541 56.8621 27.7121 56.6523 28.2689C56.6356 28.3135 56.6188 28.3581 56.6016 28.4041C55.4508 31.4613 55.4508 31.4613 54.3967 32.142C54.1748 32.2383 53.9343 32.2242 53.6916 32.1976C53.4596 32.0778 53.3456 31.9664 53.2429 31.753C53.2263 31.6379 53.2263 31.6379 53.2258 31.5159C53.2256 31.4485 53.2256 31.4485 53.2253 31.3798C53.2261 31.31 53.2261 31.31 53.2268 31.2389C53.2263 31.1933 53.2259 31.1476 53.2253 31.1006C53.2264 30.7985 53.2777 30.5431 53.3711 30.2524C53.3914 30.1519 53.4102 30.0511 53.4272 29.9502C53.6885 28.5786 54.2131 27.2155 54.7813 25.9172C54.8155 25.8381 54.8155 25.8381 54.8504 25.7574C55.7448 23.6988 55.7448 23.6988 56.6403 23.1973C56.9355 23.1067 57.166 23.0974 57.4576 23.2008ZM55.7429 26.8065C55.807 26.9732 55.807 26.9732 55.807 26.9732L55.7429 26.8065ZM55.6788 27.0288C55.7429 27.14 55.7429 27.14 55.7429 27.14L55.6788 27.0288ZM55.6147 27.1955C55.5935 27.2872 55.5724 27.3789 55.5506 27.4734C55.5929 27.4368 55.6352 27.4001 55.6788 27.3623C55.6576 27.3073 55.6365 27.2522 55.6147 27.1955ZM55.4865 27.529C55.5506 27.6402 55.5506 27.6402 55.5506 27.6402L55.4865 27.529ZM55.4224 27.6957C55.4865 27.8625 55.4865 27.8625 55.4865 27.8625L55.4224 27.6957ZM55.3583 27.8625C55.4224 28.0292 55.4224 28.0292 55.4224 28.0292L55.3583 27.8625ZM55.2301 28.2515C55.2942 28.3627 55.2942 28.3627 55.2942 28.3627L55.2301 28.2515ZM55.166 28.4183C55.2301 28.5294 55.2301 28.5294 55.2301 28.5294L55.166 28.4183Z" fill="#FCF7F0"/>
<path d="M105.294 24.3054C105.509 24.4458 105.594 24.5299 105.679 24.75C105.736 25.4469 105.615 26.0766 105.423 26.7508C105.4 26.8304 105.4 26.8304 105.378 26.9115C105.269 27.3035 105.155 27.6944 105.038 28.0847C105.024 28.1314 105.01 28.1781 104.996 28.2262C104.087 31.2342 104.087 31.2342 102.666 31.9752C102.328 32.1141 102.01 32.1257 101.641 32.0864C101.438 32.0143 101.292 31.9265 101.192 31.7529C101.232 31.6053 101.276 31.4623 101.326 31.3172C101.341 31.2733 101.356 31.2294 101.371 31.1842C101.419 31.0413 101.468 30.8987 101.516 30.756C101.549 30.6583 101.582 30.5606 101.615 30.4629C101.79 29.9479 101.968 29.434 102.158 28.9233C102.275 28.6085 102.377 28.291 102.476 27.9718C102.598 27.5873 102.738 27.2081 102.881 26.8292C102.978 26.5691 103.068 26.3096 103.145 26.0442C103.311 25.4711 103.451 25.0184 104.012 24.6388C104.064 24.6037 104.116 24.5685 104.169 24.5322C104.525 24.3209 104.865 24.2156 105.294 24.3054Z" fill="#FEF8F2"/>
<path d="M99.0765 8.79895C99.8457 8.79895 99.8457 8.79895 100.046 8.88927C100.296 9.16381 100.314 9.46053 100.314 9.79915C100.314 9.84093 100.314 9.88272 100.315 9.92576C100.315 10.0137 100.315 10.1017 100.315 10.1896C100.314 10.3233 100.316 10.4569 100.318 10.5906C100.318 10.6765 100.318 10.7623 100.318 10.8482C100.318 10.8877 100.319 10.9272 100.32 10.9679C100.317 11.2519 100.252 11.4417 100.102 11.689C99.7529 11.9162 99.5295 11.9114 99.0765 11.9114C99.0765 10.8843 99.0765 9.85717 99.0765 8.79895Z" fill="#EFECD8"/>
<path d="M51.2557 4.90839C51.3192 4.90839 51.3826 4.90839 51.448 4.90839C51.5128 5.4615 51.5767 6.01324 51.6043 6.5688C51.6238 6.9418 51.6724 7.30726 51.7325 7.6769C51.8152 8.18881 51.8685 8.70003 51.9088 9.21574C51.9141 9.28436 51.9195 9.35298 51.925 9.42368C51.9481 9.73586 51.9608 10.0417 51.9608 10.3551C51.6012 10.3551 51.2416 10.3551 50.8711 10.3551C50.861 9.85508 50.8689 9.3692 50.9272 8.87185C51.0115 8.11013 51.0688 7.34698 51.127 6.58349C51.1415 6.39376 51.1562 6.20404 51.1708 6.01432C51.1993 5.64568 51.2276 5.27704 51.2557 4.90839Z" fill="#F0F0DC"/>
<path d="M106.384 4.90839C106.448 4.90839 106.511 4.90839 106.577 4.90839C106.579 4.93953 106.582 4.97068 106.585 5.00277C106.709 6.46643 106.838 7.92893 107.011 9.38897C107.016 9.43378 107.022 9.47859 107.027 9.52476C107.037 9.60722 107.047 9.68968 107.057 9.77211C107.08 9.96891 107.089 10.1564 107.089 10.3551C106.73 10.3551 106.37 10.3551 106 10.3551C105.978 9.58545 106.031 8.83216 106.11 8.0665C106.118 7.97904 106.127 7.89158 106.136 7.80413C106.141 7.75973 106.145 7.71533 106.15 7.66959C106.208 7.09705 106.254 6.52377 106.3 5.95049C106.304 5.8981 106.309 5.84571 106.313 5.79174C106.337 5.4973 106.361 5.20285 106.384 4.90839Z" fill="#F5F2DD"/>
<path d="M99.0765 4.68616C99.8101 4.68616 99.8101 4.68616 100.038 4.85289C100.252 5.13128 100.187 5.4534 100.186 5.78036C100.187 5.85011 100.188 5.91986 100.189 5.99171C100.19 6.37044 100.182 6.68292 99.9739 7.02046C99.7175 7.13162 99.7175 7.13162 99.0765 7.13162C99.0765 6.32462 99.0765 5.51762 99.0765 4.68616Z" fill="#F0F0DC"/>
<path d="M113.051 5.0752C113.82 5.0752 113.82 5.0752 114.077 5.24193C114.157 5.49517 114.152 5.75527 114.153 6.01656C114.154 6.05421 114.154 6.09186 114.155 6.13065C114.156 6.38991 114.116 6.61048 114.013 6.85371C113.949 6.90874 113.886 6.96376 113.82 7.02045C113.566 7.02045 113.313 7.02045 113.051 7.02045C113.051 6.37852 113.051 5.73658 113.051 5.0752Z" fill="#F9F4DE"/>
<path d="M109.91 2.5741C109.952 2.59244 109.995 2.61078 110.038 2.62968C110.038 5.36248 110.038 8.09529 110.038 10.9109C110.017 10.9109 109.996 10.9109 109.974 10.9109C109.925 10.7397 109.907 10.5827 109.91 10.4072C109.921 10.2055 109.921 10.2055 109.878 10.0828C109.838 9.9382 109.839 9.80742 109.841 9.65871C109.841 9.5962 109.841 9.5337 109.842 9.4693C109.843 9.40098 109.844 9.33266 109.844 9.26227C109.845 9.19014 109.846 9.11801 109.846 9.04369C109.848 8.84608 109.85 8.64848 109.852 8.45087C109.854 8.24429 109.856 8.03771 109.858 7.83113C109.862 7.44002 109.866 7.04891 109.87 6.6578C109.874 6.21251 109.879 5.76721 109.883 5.32191C109.891 4.40597 109.9 3.49003 109.91 2.5741Z" fill="#939187"/>
<path d="M81.8969 2.51849C81.9181 2.55518 81.9392 2.59186 81.961 2.62965C82.0033 2.62965 82.0456 2.62965 82.0892 2.62965C82.0892 5.34412 82.0892 8.05858 82.0892 10.8553C82.0469 10.8553 82.0046 10.8553 81.961 10.8553C81.9399 8.10416 81.9187 5.35301 81.8969 2.51849Z" fill="#AFAFAF"/>
<path d="M59.0763 6.57581C59.8801 6.57581 60.684 6.57581 61.5122 6.57581C61.5122 7.43783 61.5122 8.29986 61.5122 9.18801C61.4487 9.16049 61.4487 9.16049 61.384 9.13243C61.3128 8.83825 61.3156 8.55475 61.3277 8.25554C61.3299 8.1879 61.3299 8.1879 61.3322 8.11889C61.3371 7.9762 61.3425 7.83353 61.3479 7.69085C61.3514 7.59356 61.3547 7.49626 61.3581 7.39896C61.3663 7.16161 61.375 6.92429 61.384 6.68696C61.3209 6.68894 61.2578 6.69091 61.1929 6.69295C60.9588 6.70019 60.7248 6.70704 60.4908 6.71376C60.3895 6.71673 60.2882 6.7198 60.1869 6.72299C60.0413 6.72755 59.8957 6.73172 59.7501 6.73581C59.7048 6.73731 59.6596 6.73882 59.6129 6.74036C59.4136 6.74562 59.2674 6.74219 59.0763 6.68696C59.0763 6.65028 59.0763 6.6136 59.0763 6.57581Z" fill="#86836C"/>
<path d="M81.8969 2.74084C81.9181 2.74084 81.9392 2.74084 81.961 2.74084C81.9613 2.7828 81.9616 2.82475 81.9619 2.86797C81.9685 3.88797 81.9754 4.90795 81.9828 5.92794C81.9863 6.4212 81.9898 6.91445 81.9929 7.40771C81.9957 7.83754 81.9986 8.26738 82.0019 8.69721C82.0036 8.92488 82.0052 9.15255 82.0065 9.38023C82.0077 9.5944 82.0093 9.80858 82.0111 10.0228C82.0117 10.1015 82.0122 10.1802 82.0125 10.2589C82.0131 10.3662 82.014 10.4734 82.015 10.5807C82.0154 10.6408 82.0158 10.7009 82.0162 10.7628C82.0179 10.9167 82.0179 10.9167 82.0892 11.0777C82.0258 11.1327 82.0258 11.1327 81.961 11.1888C81.8736 11.0371 81.8891 10.9177 81.8892 10.7478C81.8891 10.6775 81.889 10.6072 81.889 10.5348C81.8892 10.4564 81.8894 10.3781 81.8897 10.2997C81.8897 10.2176 81.8897 10.1354 81.8896 10.0533C81.8896 9.82984 81.89 9.60639 81.8904 9.38294C81.8908 9.14958 81.8909 8.91622 81.8909 8.68286C81.8911 8.24077 81.8917 7.79867 81.8923 7.35658C81.893 6.85335 81.8934 6.35013 81.8937 5.8469C81.8944 4.81155 81.8955 3.7762 81.8969 2.74084Z" fill="#E9E4D1"/>
<path d="M76.2558 6.57581C76.9962 6.57581 77.7366 6.57581 78.4994 6.57581C78.4994 7.34613 78.4994 8.11645 78.4994 8.91011C78.3313 8.61867 78.3008 8.42167 78.3149 8.10357C78.3171 8.04286 78.3171 8.04286 78.3194 7.98092C78.3243 7.8518 78.3297 7.7227 78.3351 7.59359C78.3385 7.50599 78.3419 7.41839 78.3453 7.33079C78.3535 7.11617 78.3623 6.90156 78.3712 6.68696C78.11 6.69354 77.8487 6.70045 77.5875 6.70766C77.4987 6.71006 77.4098 6.71238 77.321 6.7146C77.1932 6.71782 77.0654 6.72138 76.9376 6.72496C76.8608 6.72699 76.7839 6.72903 76.7047 6.73113C76.509 6.73572 76.509 6.73572 76.3199 6.79812C76.2987 6.72476 76.2776 6.65139 76.2558 6.57581Z" fill="#87826D"/>
<path d="M51.7685 14.0789C51.7896 14.1156 51.8108 14.1523 51.8326 14.1901C53.5461 14.1626 53.5461 14.1626 55.2942 14.1345C55.2942 14.1895 55.2942 14.2445 55.2942 14.3012C54.1518 14.3012 53.0095 14.3012 51.8326 14.3012C51.8114 14.2279 51.7903 14.1545 51.7685 14.0789Z" fill="#898880"/>
<path d="M55.9352 26.2507C55.9775 26.2507 56.0198 26.2507 56.0634 26.2507C56.0423 26.4157 56.0211 26.5808 55.9993 26.7509C55.957 26.7509 55.9147 26.7509 55.8711 26.7509C55.8724 26.8116 55.8738 26.8724 55.8751 26.935C55.8711 27.1399 55.8711 27.1399 55.807 27.3067C55.7224 27.3067 55.6378 27.3067 55.5506 27.3067C55.5506 27.215 55.5506 27.1233 55.5506 27.0288C55.5929 27.0288 55.6352 27.0288 55.6788 27.0288C55.6824 26.9794 55.6824 26.9794 55.6861 26.9291C55.7114 26.6655 55.737 26.4638 55.9352 26.2507ZM55.6788 27.0288C55.7429 27.1399 55.7429 27.1399 55.7429 27.1399L55.6788 27.0288Z" fill="#817F7C"/>
<path d="M106.384 4.90839C106.448 4.90839 106.511 4.90839 106.577 4.90839C106.577 5.12848 106.577 5.34857 106.577 5.57533C106.513 5.59367 106.45 5.61201 106.384 5.63091C106.384 5.39248 106.384 5.15404 106.384 4.90839Z" fill="#D7E1D5"/>
<path d="M72.7302 20.9151C72.7725 20.9334 72.8148 20.9518 72.8584 20.9707C72.7879 21.0427 72.717 21.1144 72.646 21.186C72.6066 21.226 72.5672 21.266 72.5266 21.3072C72.4097 21.4153 72.4097 21.4153 72.2173 21.5265C72.2476 21.2903 72.4025 21.1781 72.602 21.0263C72.6443 21.0263 72.6866 21.0263 72.7302 21.0263C72.7302 20.9896 72.7302 20.9529 72.7302 20.9151Z" fill="#CECCCA"/>
<path d="M90.2302 36.8107C90.2302 36.9774 90.2302 36.9774 90.1321 37.0788C90.0904 37.113 90.0488 37.1471 90.0059 37.1824C89.9642 37.217 89.9226 37.2516 89.8797 37.2872C89.8473 37.3134 89.8149 37.3395 89.7815 37.3665C89.7392 37.3298 89.6969 37.2931 89.6533 37.2553C89.7252 37.1914 89.7974 37.1278 89.8697 37.0642C89.9098 37.0288 89.95 36.9933 89.9914 36.9568C90.102 36.8662 90.102 36.8662 90.2302 36.8107Z" fill="#E0DED8"/>
<path d="M55.1019 28.2515C55.1442 28.2515 55.1865 28.2515 55.2301 28.2515C55.311 28.4901 55.2704 28.6338 55.166 28.8628C55.1237 28.8445 55.0814 28.8261 55.0378 28.8073C55.0589 28.6238 55.0801 28.4404 55.1019 28.2515ZM55.166 28.4182C55.2301 28.5294 55.2301 28.5294 55.2301 28.5294L55.166 28.4182Z" fill="#605F5D"/>
<path d="M48.6274 22.5825C48.5351 22.7693 48.4193 22.8932 48.2428 23.0271C48.2005 23.0271 48.1582 23.0271 48.1146 23.0271C48.2119 22.8303 48.3552 22.5825 48.6274 22.5825Z" fill="#E4E0DD"/>
<path d="M55.4865 27.3622C55.5867 27.463 55.5867 27.463 55.6789 27.5846C55.6577 27.6396 55.6365 27.6946 55.6147 27.7513C55.5724 27.7513 55.5301 27.7513 55.4865 27.7513C55.4442 27.788 55.4019 27.8247 55.3583 27.8625C55.3583 27.7524 55.3583 27.6424 55.3583 27.529C55.4006 27.529 55.443 27.529 55.4865 27.529C55.4865 27.474 55.4865 27.4189 55.4865 27.3622ZM55.4865 27.529C55.5506 27.6401 55.5506 27.6401 55.5506 27.6401L55.4865 27.529Z" fill="#807E78"/>
<path d="M90.615 5.0752C90.6361 5.0752 90.6573 5.0752 90.6791 5.0752C90.704 5.17461 90.7279 5.27423 90.7512 5.37393C90.7646 5.42938 90.778 5.48484 90.7918 5.54197C90.7969 5.58969 90.802 5.6374 90.8073 5.68656C90.765 5.72324 90.7227 5.75993 90.6791 5.79772C90.5943 5.65074 90.6088 5.53774 90.611 5.37393C90.6116 5.31819 90.6121 5.26245 90.6127 5.20502C90.6135 5.16218 90.6142 5.11934 90.615 5.0752Z" fill="#827C76"/>
<path d="M55.6147 3.18549C55.6782 3.20383 55.7416 3.22217 55.807 3.24106C55.7243 3.31752 55.6386 3.39155 55.5506 3.46338C55.5083 3.46338 55.466 3.46338 55.4224 3.46338C55.4224 3.50006 55.4224 3.53674 55.4224 3.57454C55.3801 3.5562 55.3378 3.53786 55.2942 3.51896C55.4 3.40891 55.5057 3.29887 55.6147 3.18549Z" fill="#C8C6B8"/>
<path d="M47.9865 23.027C48.0288 23.0637 48.0711 23.1004 48.1147 23.1382C48.0107 23.2332 47.9036 23.3257 47.7942 23.4161C47.7519 23.4161 47.7096 23.4161 47.666 23.4161C47.7489 23.2558 47.8365 23.1453 47.9865 23.027Z" fill="#CFCDC3"/>
</svg>
