<svg width="48" height="50" viewBox="0 0 48 50" fill="none" xmlns="http://www.w3.org/2000/svg">
<path d="M34.5067 17.32L24 22.6L13.4933 17.32L0.480011 43.2933L8.58668 42.4933L12.7467 49.48L24 27.08L35.2533 49.48L39.4133 42.4933L47.52 43.2933L34.5067 17.32Z" fill="#E24255"/>
<path d="M24 34.92C33.4846 34.92 41.1734 27.2313 41.1734 17.7467C41.1734 8.26213 33.4846 0.573364 24 0.573364C14.5155 0.573364 6.82669 8.26213 6.82669 17.7467C6.82669 27.2313 14.5155 34.92 24 34.92Z" fill="#FFC54D"/>
<path d="M24 31.24C31.4522 31.24 37.4933 25.1989 37.4933 17.7467C37.4933 10.2945 31.4522 4.25336 24 4.25336C16.5479 4.25336 10.5067 10.2945 10.5067 17.7467C10.5067 25.1989 16.5479 31.24 24 31.24Z" fill="#E8B04B"/>
<path d="M24.64 9.64005L26.88 14.12C26.9867 14.3334 27.2 14.4934 27.4133 14.5467L32.3733 15.2934C32.96 15.4001 33.2267 16.0934 32.8 16.52L29.2267 20.0401C29.0667 20.2001 28.96 20.4667 29.0133 20.6801L29.8667 25.6401C29.9733 26.2267 29.3333 26.7067 28.8 26.3867L24.3733 24.0401C24.16 23.9334 23.8933 23.9334 23.68 24.0401L19.2 26.3867C18.6667 26.6534 18.0267 26.2267 18.1333 25.6401L18.9867 20.6801C19.04 20.4667 18.9333 20.2001 18.7733 20.0401L15.2 16.52C14.7733 16.0934 14.9867 15.3467 15.6267 15.2934L20.5867 14.5467C20.8 14.4934 21.0133 14.3867 21.12 14.12L23.36 9.64005C23.6267 9.10672 24.3733 9.10672 24.64 9.64005Z" fill="white"/>
</svg>
