<svg width="275" height="272" viewBox="0 0 275 272" fill="none" xmlns="http://www.w3.org/2000/svg">
<ellipse cx="137.5" cy="136" rx="137.5" ry="136" fill="white"/>
<path d="M35.5467 204.123L47.5778 183.793L229.607 184.832L238.453 204.123H35.5467Z" fill="#46A1F8"/>
<path d="M105.05 184.124L47.5778 183.793L42.795 191.875C51.6984 191.224 91.9464 189.215 114.662 204.123H132.206C127.126 198.849 118.052 190.733 105.05 184.124Z" fill="#3084D6"/>
<path d="M159.338 204.123C184.348 187.708 230.646 191.795 232.894 192.012L229.607 184.832L168.253 184.478C155.617 191.03 146.771 198.94 141.794 204.123H159.338Z" fill="#3084D6"/>
<path d="M100.713 122.337L47.5778 167.972L137 204.123V131.856L100.713 122.337Z" fill="#C8C2E9"/>
<path d="M173.287 122.337L137 131.856V204.123L226.422 167.972L173.287 122.337Z" fill="#C8C2E9"/>
<path opacity="0.2" d="M141.794 130.601L137.285 131.788L137 204.602L151.862 198.107L141.794 130.601Z" fill="#231F20"/>
<path opacity="0.2" d="M134.717 131.263L137 131.857V204.123L122.138 198.107L134.717 131.263Z" fill="#231F20"/>
<path d="M168.424 98.7997C168.424 81.3468 154.19 67.2154 136.703 67.3752C119.216 67.535 105.381 81.8376 105.576 99.1764C105.656 106.814 108.526 114.158 113.646 119.825C120.072 126.96 123.713 136.171 123.713 145.782V145.839H150.287V145.782C150.278 136.228 153.831 127.014 160.252 119.94C165.52 114.161 168.436 106.62 168.424 98.7997Z" fill="#F4C23F"/>
<path d="M123.633 145.782H150.355V157.037C150.352 160.578 148.944 163.973 146.44 166.477C143.936 168.981 140.541 170.389 137 170.392C133.455 170.392 130.055 168.984 127.548 166.477C125.042 163.971 123.633 160.571 123.633 157.026V145.771V145.782Z" fill="#4D4C78"/>
<path d="M150.367 155.234V150.668H123.633V155.234H150.367Z" fill="#323150"/>
<path d="M137 55.641C136.395 55.641 135.814 55.4005 135.386 54.9723C134.958 54.5442 134.717 53.9635 134.717 53.3581V40.802C134.717 40.1965 134.958 39.6158 135.386 39.1877C135.814 38.7596 136.395 38.519 137 38.519C137.605 38.519 138.186 38.7596 138.614 39.1877C139.042 39.6158 139.283 40.1965 139.283 40.802V53.3581C139.283 53.9635 139.042 54.5442 138.614 54.9723C138.186 55.4005 137.605 55.641 137 55.641Z" fill="#F8881B"/>
<path d="M105.153 68.8363C104.545 68.8343 103.963 68.5922 103.532 68.1628L94.6631 59.2937C94.2347 58.8653 93.9941 58.2843 93.9941 57.6785C93.9941 57.0727 94.2347 56.4917 94.6631 56.0633C95.0915 55.6349 95.6725 55.3943 96.2783 55.3943C96.8841 55.3943 97.4651 55.6349 97.8935 56.0633L106.763 64.9439C107.08 65.2631 107.296 65.669 107.383 66.1106C107.47 66.5522 107.425 67.0097 107.253 67.4257C107.081 67.8417 106.79 68.1975 106.416 68.4485C106.043 68.6995 105.603 68.8344 105.153 68.8363Z" fill="#F8881B"/>
<path d="M168.847 68.8363C169.455 68.8343 170.037 68.5922 170.468 68.1628L179.337 59.2937C179.765 58.8653 180.006 58.2843 180.006 57.6785C180.006 57.0727 179.765 56.4917 179.337 56.0633C178.909 55.6349 178.328 55.3943 177.722 55.3943C177.116 55.3943 176.535 55.6349 176.107 56.0633L167.237 64.9439C166.92 65.2631 166.704 65.669 166.617 66.1106C166.53 66.5522 166.575 67.0097 166.747 67.4257C166.919 67.8417 167.21 68.1975 167.584 68.4485C167.957 68.6995 168.397 68.8344 168.847 68.8363Z" fill="#F8881B"/>
<path d="M91.9579 100.683H79.4018C78.7963 100.683 78.2156 100.443 77.7875 100.014C77.3594 99.5863 77.1188 99.0056 77.1188 98.4002C77.1188 97.7947 77.3594 97.214 77.7875 96.7859C78.2156 96.3578 78.7963 96.1172 79.4018 96.1172H91.9579C92.5633 96.1172 93.144 96.3578 93.5721 96.7859C94.0003 97.214 94.2408 97.7947 94.2408 98.4002C94.2408 99.0056 94.0003 99.5863 93.5721 100.014C93.144 100.443 92.5633 100.683 91.9579 100.683Z" fill="#F8881B"/>
<path d="M194.598 100.683H182.042C181.437 100.683 180.856 100.443 180.428 100.014C180 99.5863 179.759 99.0056 179.759 98.4002C179.759 97.7947 180 97.214 180.428 96.7859C180.856 96.3578 181.437 96.1172 182.042 96.1172H194.598C195.204 96.1172 195.784 96.3578 196.213 96.7859C196.641 97.214 196.881 97.7947 196.881 98.4002C196.881 99.0056 196.641 99.5863 196.213 100.014C195.784 100.443 195.204 100.683 194.598 100.683Z" fill="#F8881B"/>
<path d="M152.581 204.123H121.419V212.822H152.581V204.123Z" fill="#323150"/>
<path d="M121.43 204.123H35.5467V212.822H121.43V204.123Z" fill="#67BAEB"/>
<path d="M152.57 212.82H238.453V204.121H152.57V212.82Z" fill="#67BAEB"/>
<path d="M137 204.123C137 204.123 106.637 162.573 47.5778 167.972L41.0143 186.51C41.0143 186.51 98.761 180.814 121.419 204.123H137Z" fill="#4D4C78"/>
<path d="M137 204.123C137 204.123 167.363 162.573 226.422 167.972L232.986 186.51C232.986 186.51 175.239 180.814 152.581 204.123H137Z" fill="#4D4C78"/>
<path d="M136.703 67.3752C125.745 67.478 116.134 73.231 110.587 81.8262C111.42 106.253 130.482 126.058 154.601 128.067C156.12 125.121 158.019 122.389 160.252 119.94C165.52 114.161 168.436 106.62 168.424 98.7997C168.424 81.3468 154.19 67.2154 136.703 67.3752Z" fill="#FAD564"/>
<path d="M180.336 128.87C178.799 127.506 176.449 127.644 175.087 129.178C173.724 130.712 173.866 133.063 175.403 134.427L187.618 145.273C189.155 146.637 191.505 146.499 192.868 144.965C194.23 143.43 194.089 141.08 192.552 139.716L180.336 128.87Z" fill="#DFDAFD"/>
</svg>
